STARTFONT 2.1
FONT -Bitstream-Terminal-Medium-R-Narrow--50-360-100-100-C-180-DEC-DECtech
SIZE 36 100 100
FONTBOUNDINGBOX 18 50 0 -10

STARTPROPERTIES 27
FOUNDRY "Bitstream"
FAMILY_NAME "Terminal"
WEIGHT_NAME "Medium"
SLANT "R"
SETWIDTH_NAME "Narrow"
ADD_STYLE_NAME ""
PIXEL_SIZE 50
POINT_SIZE 360
RESOLUTION_X 100
RESOLUTION_Y 100
SPACING "C"
AVERAGE_WIDTH 180
CHARSET_REGISTRY "DEC"
CHARSET_ENCODING "DECtech"
CAP_HEIGHT 30
COPYRIGHT "Copyright (c) 1991 Digital Equipment Corporation. All Rights Reserved."
_DEC_PRODUCTINFO "DECterm Fonts V2.2, 11-Nov-1991"
AVG_CAPITAL_WIDTH 180
AVG_LOWERCASE_WIDTH 180
FIGURE_WIDTH 18
FULL_NAME "Terminal Narrow"
WEIGHT 10
X_HEIGHT -8
QUAD_WIDTH 18
DEFAULT_CHAR 159
FONT_DESCENT 10
FONT_ASCENT 40
ENDPROPERTIES

CHARS 182

STARTCHAR space
ENCODING 32
SWIDTH 720 0
DWIDTH 18 0
BBX 18 50 0 -10
BITMAP
000000
000000
000000
000000
000000
000000
000000
000000
000000
000000
000000
000000
000000
000000
000000
000000
000000
000000
000000
000000
000000
000000
000000
000000
000000
000000
000000
000000
000000
000000
000000
000000
000000
000000
000000
000000
000000
000000
000000
000000
000000
000000
000000
000000
000000
000000
000000
000000
000000
000000
ENDCHAR

STARTCHAR exclam
ENCODING 33
SWIDTH 720 0
DWIDTH 18 0
BBX 18 50 0 -10
BITMAP
000000
000000
000000
000000
000000
000000
000000
000000
000000
000000
00C000
00C000
00C000
00C000
00C000
00C000
00C000
00C000
00C000
00C000
00C000
00C000
00C000
00C000
00C000
00C000
00C000
00C000
000000
000000
000000
000000
000000
000000
00C000
00C000
03F000
03F000
00C000
00C000
000000
000000
000000
000000
000000
000000
000000
000000
000000
000000
ENDCHAR

STARTCHAR quotedbl
ENCODING 34
SWIDTH 720 0
DWIDTH 18 0
BBX 18 50 0 -10
BITMAP
000000
000000
000000
000000
000000
000000
000000
000000
063000
063000
063000
063000
063000
063000
063000
063000
063000
063000
063000
063000
000000
000000
000000
000000
000000
000000
000000
000000
000000
000000
000000
000000
000000
000000
000000
000000
000000
000000
000000
000000
000000
000000
000000
000000
000000
000000
000000
000000
000000
000000
ENDCHAR

STARTCHAR numbersign
ENCODING 35
SWIDTH 720 0
DWIDTH 18 0
BBX 18 50 0 -10
BITMAP
000000
000000
000000
000000
000000
000000
000000
000000
000000
000000
063000
063000
063000
063000
063000
063000
063000
063000
063000
063000
1FFC00
1FFC00
063000
063000
063000
063000
063000
063000
063000
063000
1FFC00
1FFC00
063000
063000
063000
063000
063000
063000
063000
063000
063000
063000
000000
000000
000000
000000
000000
000000
000000
000000
ENDCHAR

STARTCHAR dollar
ENCODING 36
SWIDTH 720 0
DWIDTH 18 0
BBX 18 50 0 -10
BITMAP
000000
000000
000000
000000
00C000
00C000
00C000
00C000
00C000
00C000
00C000
00C000
07FA00
07FA00
0E0E00
0E0E00
180600
180600
180600
180600
0F0000
0F0000
07E000
07E000
00FC00
00FC00
001C00
001C00
180600
180600
180600
180600
1C0600
1C0600
1F1C00
1F1C00
19F800
19F800
00C000
00C000
00C000
00C000
00C000
00C000
00C000
00C000
000000
000000
000000
000000
ENDCHAR

STARTCHAR percent
ENCODING 37
SWIDTH 720 0
DWIDTH 18 0
BBX 18 50 0 -10
BITMAP
000000
000000
000000
000000
000000
000000
000000
000000
000000
000000
1F8000
1F8000
30C000
30C000
30C000
30C000
30C000
30C000
30C700
30C700
1F9C00
1F9C00
007000
007000
00E000
00E000
038000
038000
0E7E00
0E7E00
38C300
38C300
00C300
00C300
00C300
00C300
00C300
00C300
007E00
007E00
000000
000000
000000
000000
000000
000000
000000
000000
000000
000000
ENDCHAR

STARTCHAR ampersand
ENCODING 38
SWIDTH 720 0
DWIDTH 18 0
BBX 18 50 0 -10
BITMAP
000000
000000
000000
000000
000000
000000
000000
000000
000000
000000
01F800
01F800
071800
071800
061800
061800
060000
060000
060000
060000
030000
030000
018000
018000
078600
078600
0EC600
0EC600
186400
186400
186C00
186C00
183800
183800
181800
181800
0E7E00
0E7E00
07C600
07C600
000000
000000
000000
000000
000000
000000
000000
000000
000000
000000
ENDCHAR

STARTCHAR quoteright
ENCODING 39
SWIDTH 720 0
DWIDTH 18 0
BBX 18 50 0 -10
BITMAP
000000
000000
000000
000000
000000
000000
003800
003800
007000
007000
00E000
00E000
01C000
01C000
030000
030000
060000
060000
000000
000000
000000
000000
000000
000000
000000
000000
000000
000000
000000
000000
000000
000000
000000
000000
000000
000000
000000
000000
000000
000000
000000
000000
000000
000000
000000
000000
000000
000000
000000
000000
ENDCHAR

STARTCHAR parenleft
ENCODING 40
SWIDTH 720 0
DWIDTH 18 0
BBX 18 50 0 -10
BITMAP
000000
000000
000000
000000
001800
001800
003000
003000
006000
006000
00C000
00C000
00C000
00C000
018000
018000
018000
018000
030000
030000
030000
030000
030000
030000
030000
030000
030000
030000
030000
030000
030000
030000
030000
030000
018000
018000
018000
018000
00C000
00C000
00C000
00C000
006000
006000
003000
003000
001800
001800
000000
000000
ENDCHAR

STARTCHAR parenright
ENCODING 41
SWIDTH 720 0
DWIDTH 18 0
BBX 18 50 0 -10
BITMAP
000000
000000
000000
000000
030000
030000
018000
018000
00C000
00C000
006000
006000
006000
006000
003000
003000
003000
003000
001800
001800
001800
001800
001800
001800
001800
001800
001800
001800
001800
001800
001800
001800
001800
001800
003000
003000
003000
003000
006000
006000
006000
006000
00C000
00C000
018000
018000
030000
030000
000000
000000
ENDCHAR

STARTCHAR asterisk
ENCODING 42
SWIDTH 720 0
DWIDTH 18 0
BBX 18 50 0 -10
BITMAP
000000
000000
000000
000000
000000
000000
000000
000000
000000
000000
00C000
00C000
00C000
00C000
0C4C00
0C4C00
0CCC00
0CCC00
033000
033000
03F000
03F000
00C000
00C000
033000
033000
033000
033000
0C0C00
0C0C00
0C0C00
0C0C00
000000
000000
000000
000000
000000
000000
000000
000000
000000
000000
000000
000000
000000
000000
000000
000000
000000
000000
ENDCHAR

STARTCHAR plus
ENCODING 43
SWIDTH 720 0
DWIDTH 18 0
BBX 18 50 0 -10
BITMAP
000000
000000
000000
000000
000000
000000
000000
000000
000000
000000
000000
000000
000000
000000
00C000
00C000
00C000
00C000
00C000
00C000
00C000
00C000
00C000
00C000
3FFF00
3FFF00
00C000
00C000
00C000
00C000
00C000
00C000
00C000
00C000
00C000
00C000
000000
000000
000000
000000
000000
000000
000000
000000
000000
000000
000000
000000
000000
000000
ENDCHAR

STARTCHAR comma
ENCODING 44
SWIDTH 720 0
DWIDTH 18 0
BBX 18 50 0 -10
BITMAP
000000
000000
000000
000000
000000
000000
000000
000000
000000
000000
000000
000000
000000
000000
000000
000000
000000
000000
000000
000000
000000
000000
000000
000000
000000
000000
000000
000000
000000
000000
000000
000000
000000
000000
00F000
00F000
00E000
00E000
01C000
01C000
018000
018000
030000
030000
060000
060000
000000
000000
000000
000000
ENDCHAR

STARTCHAR minus
ENCODING 45
SWIDTH 720 0
DWIDTH 18 0
BBX 18 50 0 -10
BITMAP
000000
000000
000000
000000
000000
000000
000000
000000
000000
000000
000000
000000
000000
000000
000000
000000
000000
000000
000000
000000
000000
000000
000000
000000
1FFE00
1FFE00
000000
000000
000000
000000
000000
000000
000000
000000
000000
000000
000000
000000
000000
000000
000000
000000
000000
000000
000000
000000
000000
000000
000000
000000
ENDCHAR

STARTCHAR period
ENCODING 46
SWIDTH 720 0
DWIDTH 18 0
BBX 18 50 0 -10
BITMAP
000000
000000
000000
000000
000000
000000
000000
000000
000000
000000
000000
000000
000000
000000
000000
000000
000000
000000
000000
000000
000000
000000
000000
000000
000000
000000
000000
000000
000000
000000
000000
000000
000000
000000
00C000
00C000
03F000
03F000
00C000
00C000
000000
000000
000000
000000
000000
000000
000000
000000
000000
000000
ENDCHAR

STARTCHAR slash
ENCODING 47
SWIDTH 720 0
DWIDTH 18 0
BBX 18 50 0 -10
BITMAP
000000
000000
000000
000000
000000
000000
000C00
000C00
000C00
000C00
001800
001800
001800
001800
003000
003000
003000
003000
006000
006000
006000
006000
00C000
00C000
00C000
00C000
00C000
00C000
018000
018000
018000
018000
030000
030000
030000
030000
060000
060000
060000
060000
0C0000
0C0000
0C0000
0C0000
000000
000000
000000
000000
000000
000000
ENDCHAR

STARTCHAR zero
ENCODING 48
SWIDTH 720 0
DWIDTH 18 0
BBX 18 50 0 -10
BITMAP
000000
000000
000000
000000
000000
000000
000000
000000
000000
000000
03F000
03F000
073800
073800
0C0C00
0C0C00
0C0C00
0C0C00
180600
180600
180600
180600
180600
180600
180600
180600
180600
180600
180600
180600
180600
180600
0C0C00
0C0C00
0C0C00
0C0C00
073800
073800
03F000
03F000
000000
000000
000000
000000
000000
000000
000000
000000
000000
000000
ENDCHAR

STARTCHAR one
ENCODING 49
SWIDTH 720 0
DWIDTH 18 0
BBX 18 50 0 -10
BITMAP
000000
000000
000000
000000
000000
000000
000000
000000
000000
000000
00C000
00C000
01C000
01C000
06C000
06C000
18C000
18C000
00C000
00C000
00C000
00C000
00C000
00C000
00C000
00C000
00C000
00C000
00C000
00C000
00C000
00C000
00C000
00C000
00C000
00C000
00C000
00C000
0FFC00
0FFC00
000000
000000
000000
000000
000000
000000
000000
000000
000000
000000
ENDCHAR

STARTCHAR two
ENCODING 50
SWIDTH 720 0
DWIDTH 18 0
BBX 18 50 0 -10
BITMAP
000000
000000
000000
000000
000000
000000
000000
000000
000000
000000
07F000
07F000
0C1800
0C1800
180C00
180C00
180C00
180C00
001800
001800
001800
001800
003000
003000
006000
006000
00C000
00C000
008000
008000
018000
018000
030000
030000
060C00
060C00
0C0C00
0C0C00
1FFC00
1FFC00
000000
000000
000000
000000
000000
000000
000000
000000
000000
000000
ENDCHAR

STARTCHAR three
ENCODING 51
SWIDTH 720 0
DWIDTH 18 0
BBX 18 50 0 -10
BITMAP
000000
000000
000000
000000
000000
000000
000000
000000
000000
000000
07E000
07E000
183000
183000
101800
101800
001800
001800
001800
001800
003000
003000
03E000
03E000
007000
007000
001800
001800
000C00
000C00
000C00
000C00
000C00
000C00
101800
101800
183800
183800
0FE000
0FE000
000000
000000
000000
000000
000000
000000
000000
000000
000000
000000
ENDCHAR

STARTCHAR four
ENCODING 52
SWIDTH 720 0
DWIDTH 18 0
BBX 18 50 0 -10
BITMAP
000000
000000
000000
000000
000000
000000
000000
000000
000000
000000
003000
003000
007000
007000
00F000
00F000
01B000
01B000
033000
033000
023000
023000
063000
063000
0C3000
0C3000
183000
183000
303000
303000
3FFC00
3FFC00
003000
003000
003000
003000
003000
003000
00FC00
00FC00
000000
000000
000000
000000
000000
000000
000000
000000
000000
000000
ENDCHAR

STARTCHAR five
ENCODING 53
SWIDTH 720 0
DWIDTH 18 0
BBX 18 50 0 -10
BITMAP
000000
000000
000000
000000
000000
000000
000000
000000
000000
000000
1FF800
1FF800
180000
180000
180000
180000
180000
180000
180000
180000
1BE000
1BE000
1C7800
1C7800
001800
001800
000C00
000C00
000C00
000C00
000C00
000C00
000C00
000C00
181C00
181C00
1C3800
1C3800
0FE000
0FE000
000000
000000
000000
000000
000000
000000
000000
000000
000000
000000
ENDCHAR

STARTCHAR six
ENCODING 54
SWIDTH 720 0
DWIDTH 18 0
BBX 18 50 0 -10
BITMAP
000000
000000
000000
000000
000000
000000
000000
000000
000000
000000
00FC00
00FC00
038000
038000
060000
060000
0C0000
0C0000
080000
080000
180000
180000
1BF800
1BF800
1E0C00
1E0C00
1C0600
1C0600
180600
180600
180600
180600
180600
180600
080600
080600
0E1C00
0E1C00
03F000
03F000
000000
000000
000000
000000
000000
000000
000000
000000
000000
000000
ENDCHAR

STARTCHAR seven
ENCODING 55
SWIDTH 720 0
DWIDTH 18 0
BBX 18 50 0 -10
BITMAP
000000
000000
000000
000000
000000
000000
000000
000000
000000
000000
1FFE00
1FFE00
180600
180600
180E00
180E00
180C00
180C00
001800
001800
001800
001800
003000
003000
007000
007000
006000
006000
00C000
00C000
00C000
00C000
018000
018000
018000
018000
030000
030000
030000
030000
000000
000000
000000
000000
000000
000000
000000
000000
000000
000000
ENDCHAR

STARTCHAR eight
ENCODING 56
SWIDTH 720 0
DWIDTH 18 0
BBX 18 50 0 -10
BITMAP
000000
000000
000000
000000
000000
000000
000000
000000
000000
000000
03F000
03F000
0E1C00
0E1C00
0C0C00
0C0C00
180600
180600
180600
180600
0C0C00
0C0C00
07F800
07F800
0E1C00
0E1C00
1C0E00
1C0E00
180600
180600
180600
180600
180600
180600
1C0E00
1C0E00
0E1C00
0E1C00
03F000
03F000
000000
000000
000000
000000
000000
000000
000000
000000
000000
000000
ENDCHAR

STARTCHAR nine
ENCODING 57
SWIDTH 720 0
DWIDTH 18 0
BBX 18 50 0 -10
BITMAP
000000
000000
000000
000000
000000
000000
000000
000000
000000
000000
07F000
07F000
0C1C00
0C1C00
180C00
180C00
180600
180600
180600
180600
180600
180600
180E00
180E00
0C1E00
0C1E00
07F600
07F600
000600
000600
000C00
000C00
000C00
000C00
001800
001800
007000
007000
0FC000
0FC000
000000
000000
000000
000000
000000
000000
000000
000000
000000
000000
ENDCHAR

STARTCHAR colon
ENCODING 58
SWIDTH 720 0
DWIDTH 18 0
BBX 18 50 0 -10
BITMAP
000000
000000
000000
000000
000000
000000
000000
000000
000000
000000
000000
000000
000000
000000
000000
000000
000000
000000
000000
000000
00C000
00C000
03F000
03F000
00C000
00C000
000000
000000
000000
000000
000000
000000
000000
000000
00C000
00C000
03F000
03F000
00C000
00C000
000000
000000
000000
000000
000000
000000
000000
000000
000000
000000
ENDCHAR

STARTCHAR semicolon
ENCODING 59
SWIDTH 720 0
DWIDTH 18 0
BBX 18 50 0 -10
BITMAP
000000
000000
000000
000000
000000
000000
000000
000000
000000
000000
000000
000000
000000
000000
000000
000000
000000
000000
000000
000000
006000
006000
01F800
01F800
006000
006000
000000
000000
000000
000000
000000
000000
000000
000000
00F000
00F000
00E000
00E000
01C000
01C000
018000
018000
030000
030000
060000
060000
000000
000000
000000
000000
ENDCHAR

STARTCHAR less
ENCODING 60
SWIDTH 720 0
DWIDTH 18 0
BBX 18 50 0 -10
BITMAP
000000
000000
000000
000000
000000
000000
000000
000000
000000
000000
000000
000000
000000
000000
000000
000000
000C00
000C00
003800
003800
00E000
00E000
038000
038000
060000
060000
1C0000
1C0000
060000
060000
038000
038000
00E000
00E000
003800
003800
000C00
000C00
000000
000000
000000
000000
000000
000000
000000
000000
000000
000000
000000
000000
ENDCHAR

STARTCHAR equal
ENCODING 61
SWIDTH 720 0
DWIDTH 18 0
BBX 18 50 0 -10
BITMAP
000000
000000
000000
000000
000000
000000
000000
000000
000000
000000
000000
000000
000000
000000
000000
000000
000000
000000
000000
000000
1FFE00
1FFE00
000000
000000
000000
000000
000000
000000
1FFE00
1FFE00
000000
000000
000000
000000
000000
000000
000000
000000
000000
000000
000000
000000
000000
000000
000000
000000
000000
000000
000000
000000
ENDCHAR

STARTCHAR greater
ENCODING 62
SWIDTH 720 0
DWIDTH 18 0
BBX 18 50 0 -10
BITMAP
000000
000000
000000
000000
000000
000000
000000
000000
000000
000000
000000
000000
000000
000000
000000
000000
180000
180000
0E0000
0E0000
038000
038000
00E000
00E000
003000
003000
001C00
001C00
003000
003000
00E000
00E000
038000
038000
0E0000
0E0000
180000
180000
000000
000000
000000
000000
000000
000000
000000
000000
000000
000000
000000
000000
ENDCHAR

STARTCHAR question
ENCODING 63
SWIDTH 720 0
DWIDTH 18 0
BBX 18 50 0 -10
BITMAP
000000
000000
000000
000000
000000
000000
000000
000000
000000
000000
03E000
03E000
0E3800
0E3800
180C00
180C00
180C00
180C00
001800
001800
007000
007000
00C000
00C000
00C000
00C000
00C000
00C000
000000
000000
000000
000000
000000
000000
00C000
00C000
03F000
03F000
00C000
00C000
000000
000000
000000
000000
000000
000000
000000
000000
000000
000000
ENDCHAR

STARTCHAR at
ENCODING 64
SWIDTH 720 0
DWIDTH 18 0
BBX 18 50 0 -10
BITMAP
000000
000000
000000
000000
000000
000000
03F000
03F000
0E1800
0E1800
180C00
180C00
180C00
180C00
300C00
300C00
300C00
300C00
30FC00
30FC00
318C00
318C00
318C00
318C00
318C00
318C00
318C00
318C00
318C00
318C00
318C00
318C00
30FF00
30FF00
300000
300000
300000
300000
180000
180000
180300
180300
0E0700
0E0700
03FC00
03FC00
000000
000000
000000
000000
ENDCHAR

STARTCHAR A
ENCODING 65
SWIDTH 720 0
DWIDTH 18 0
BBX 18 50 0 -10
BITMAP
000000
000000
000000
000000
000000
000000
000000
000000
000000
000000
00C000
00C000
00C000
00C000
01E000
01E000
033000
033000
033000
033000
033000
033000
061800
061800
061800
061800
0C0C00
0C0C00
0FFC00
0FFC00
0C0C00
0C0C00
180600
180600
180600
180600
180600
180600
7E1F80
7E1F80
000000
000000
000000
000000
000000
000000
000000
000000
000000
000000
ENDCHAR

STARTCHAR B
ENCODING 66
SWIDTH 720 0
DWIDTH 18 0
BBX 18 50 0 -10
BITMAP
000000
000000
000000
000000
000000
000000
000000
000000
000000
000000
7FF000
7FF000
181C00
181C00
180600
180600
180600
180600
180600
180600
180C00
180C00
1FF800
1FF800
180C00
180C00
180600
180600
180600
180600
180600
180600
180600
180600
180600
180600
181C00
181C00
7FF000
7FF000
000000
000000
000000
000000
000000
000000
000000
000000
000000
000000
ENDCHAR

STARTCHAR C
ENCODING 67
SWIDTH 720 0
DWIDTH 18 0
BBX 18 50 0 -10
BITMAP
000000
000000
000000
000000
000000
000000
000000
000000
000000
000000
07F600
07F600
181E00
181E00
180600
180600
300600
300600
300000
300000
300000
300000
300000
300000
300000
300000
300000
300000
300000
300000
300000
300000
300600
300600
180600
180600
1C1C00
1C1C00
07F000
07F000
000000
000000
000000
000000
000000
000000
000000
000000
000000
000000
ENDCHAR

STARTCHAR D
ENCODING 68
SWIDTH 720 0
DWIDTH 18 0
BBX 18 50 0 -10
BITMAP
000000
000000
000000
000000
000000
000000
000000
000000
000000
000000
7FF000
7FF000
181C00
181C00
180600
180600
180600
180600
180600
180600
180600
180600
180600
180600
180600
180600
180600
180600
180600
180600
180600
180600
180600
180600
180600
180600
181C00
181C00
7FF000
7FF000
000000
000000
000000
000000
000000
000000
000000
000000
000000
000000
ENDCHAR

STARTCHAR E
ENCODING 69
SWIDTH 720 0
DWIDTH 18 0
BBX 18 50 0 -10
BITMAP
000000
000000
000000
000000
000000
000000
000000
000000
000000
000000
3FFE00
3FFE00
0C0600
0C0600
0C0600
0C0600
0C0600
0C0600
0C0000
0C0000
0C1000
0C1000
0C1000
0C1000
0FF000
0FF000
0C1000
0C1000
0C1000
0C1000
0C0000
0C0000
0C0600
0C0600
0C0600
0C0600
0C0600
0C0600
3FFE00
3FFE00
000000
000000
000000
000000
000000
000000
000000
000000
000000
000000
ENDCHAR

STARTCHAR F
ENCODING 70
SWIDTH 720 0
DWIDTH 18 0
BBX 18 50 0 -10
BITMAP
000000
000000
000000
000000
000000
000000
000000
000000
000000
000000
3FFF00
3FFF00
0C0300
0C0300
0C0300
0C0300
0C0300
0C0300
0C0000
0C0000
0C1000
0C1000
0C1000
0C1000
0FF000
0FF000
0C1000
0C1000
0C1000
0C1000
0C0000
0C0000
0C0000
0C0000
0C0000
0C0000
0C0000
0C0000
3F8000
3F8000
000000
000000
000000
000000
000000
000000
000000
000000
000000
000000
ENDCHAR

STARTCHAR G
ENCODING 71
SWIDTH 720 0
DWIDTH 18 0
BBX 18 50 0 -10
BITMAP
000000
000000
000000
000000
000000
000000
000000
000000
000000
000000
07F600
07F600
1C1E00
1C1E00
180600
180600
300600
300600
300000
300000
300000
300000
300000
300000
300000
300000
301F00
301F00
300600
300600
300600
300600
300600
300600
180600
180600
1C0C00
1C0C00
07F800
07F800
000000
000000
000000
000000
000000
000000
000000
000000
000000
000000
ENDCHAR

STARTCHAR H
ENCODING 72
SWIDTH 720 0
DWIDTH 18 0
BBX 18 50 0 -10
BITMAP
000000
000000
000000
000000
000000
000000
000000
000000
000000
000000
7E1F80
7E1F80
180600
180600
180600
180600
180600
180600
180600
180600
180600
180600
180600
180600
1FFE00
1FFE00
180600
180600
180600
180600
180600
180600
180600
180600
180600
180600
180600
180600
7E1F80
7E1F80
000000
000000
000000
000000
000000
000000
000000
000000
000000
000000
ENDCHAR

STARTCHAR I
ENCODING 73
SWIDTH 720 0
DWIDTH 18 0
BBX 18 50 0 -10
BITMAP
000000
000000
000000
000000
000000
000000
000000
000000
000000
000000
1FFE00
1FFE00
00C000
00C000
00C000
00C000
00C000
00C000
00C000
00C000
00C000
00C000
00C000
00C000
00C000
00C000
00C000
00C000
00C000
00C000
00C000
00C000
00C000
00C000
00C000
00C000
00C000
00C000
1FFE00
1FFE00
000000
000000
000000
000000
000000
000000
000000
000000
000000
000000
ENDCHAR

STARTCHAR J
ENCODING 74
SWIDTH 720 0
DWIDTH 18 0
BBX 18 50 0 -10
BITMAP
000000
000000
000000
000000
000000
000000
000000
000000
000000
000000
01FF00
01FF00
001800
001800
001800
001800
001800
001800
001800
001800
001800
001800
001800
001800
001800
001800
001800
001800
001800
001800
301800
301800
301800
301800
301800
301800
183000
183000
07E000
07E000
000000
000000
000000
000000
000000
000000
000000
000000
000000
000000
ENDCHAR

STARTCHAR K
ENCODING 75
SWIDTH 720 0
DWIDTH 18 0
BBX 18 50 0 -10
BITMAP
000000
000000
000000
000000
000000
000000
000000
000000
000000
000000
3F3F00
3F3F00
0C0C00
0C0C00
0C1800
0C1800
0C3000
0C3000
0C6000
0C6000
0CC000
0CC000
0DE000
0DE000
0F6000
0F6000
0E3000
0E3000
0C1800
0C1800
0C1800
0C1800
0C0C00
0C0C00
0C0E00
0C0E00
0C0600
0C0600
3F0F00
3F0F00
000000
000000
000000
000000
000000
000000
000000
000000
000000
000000
ENDCHAR

STARTCHAR L
ENCODING 76
SWIDTH 720 0
DWIDTH 18 0
BBX 18 50 0 -10
BITMAP
000000
000000
000000
000000
000000
000000
000000
000000
000000
000000
1F8000
1F8000
060000
060000
060000
060000
060000
060000
060000
060000
060000
060000
060000
060000
060000
060000
060000
060000
060000
060000
060000
060000
060000
060000
060300
060300
060300
060300
1FFF00
1FFF00
000000
000000
000000
000000
000000
000000
000000
000000
000000
000000
ENDCHAR

STARTCHAR M
ENCODING 77
SWIDTH 720 0
DWIDTH 18 0
BBX 18 50 0 -10
BITMAP
000000
000000
000000
000000
000000
000000
000000
000000
000000
000000
3C0780
3C0780
0C0600
0C0600
0E0E00
0E0E00
0E0E00
0E0E00
0E0E00
0E0E00
0D1600
0D1600
0D1600
0D1600
0DB600
0DB600
0CA600
0CA600
0CA600
0CA600
0C4600
0C4600
0C4600
0C4600
0C0600
0C0600
0C0600
0C0600
3F1F80
3F1F80
000000
000000
000000
000000
000000
000000
000000
000000
000000
000000
ENDCHAR

STARTCHAR N
ENCODING 78
SWIDTH 720 0
DWIDTH 18 0
BBX 18 50 0 -10
BITMAP
000000
000000
000000
000000
000000
000000
000000
000000
000000
000000
7C1F80
7C1F80
1E0600
1E0600
1A0600
1A0600
1B0600
1B0600
190600
190600
198600
198600
188600
188600
18C600
18C600
186600
186600
182600
182600
183600
183600
181600
181600
181E00
181E00
180E00
180E00
7E0E00
7E0E00
000000
000000
000000
000000
000000
000000
000000
000000
000000
000000
ENDCHAR

STARTCHAR O
ENCODING 79
SWIDTH 720 0
DWIDTH 18 0
BBX 18 50 0 -10
BITMAP
000000
000000
000000
000000
000000
000000
000000
000000
000000
000000
07F800
07F800
1C0E00
1C0E00
180600
180600
300300
300300
300300
300300
300300
300300
300300
300300
300300
300300
300300
300300
300300
300300
300300
300300
300300
300300
180600
180600
1C0E00
1C0E00
07F800
07F800
000000
000000
000000
000000
000000
000000
000000
000000
000000
000000
ENDCHAR

STARTCHAR P
ENCODING 80
SWIDTH 720 0
DWIDTH 18 0
BBX 18 50 0 -10
BITMAP
000000
000000
000000
000000
000000
000000
000000
000000
000000
000000
3FFC00
3FFC00
0C0600
0C0600
0C0300
0C0300
0C0300
0C0300
0C0300
0C0300
0C0300
0C0300
0C0600
0C0600
0FFC00
0FFC00
0C0000
0C0000
0C0000
0C0000
0C0000
0C0000
0C0000
0C0000
0C0000
0C0000
0C0000
0C0000
3F8000
3F8000
000000
000000
000000
000000
000000
000000
000000
000000
000000
000000
ENDCHAR

STARTCHAR Q
ENCODING 81
SWIDTH 720 0
DWIDTH 18 0
BBX 18 50 0 -10
BITMAP
000000
000000
000000
000000
000000
000000
000000
000000
000000
000000
07F800
07F800
1C0E00
1C0E00
180600
180600
300300
300300
300300
300300
300300
300300
300300
300300
300300
300300
300300
300300
300300
300300
300300
300300
300300
300300
180600
180600
1C0E00
1C0E00
07F800
07F800
010000
010000
010000
010000
0FC600
0FC600
1C7C00
1C7C00
000000
000000
ENDCHAR

STARTCHAR R
ENCODING 82
SWIDTH 720 0
DWIDTH 18 0
BBX 18 50 0 -10
BITMAP
000000
000000
000000
000000
000000
000000
000000
000000
000000
000000
3FF800
3FF800
0C0C00
0C0C00
0C0600
0C0600
0C0600
0C0600
0C0600
0C0600
0C0C00
0C0C00
0FF800
0FF800
0C6000
0C6000
0C3000
0C3000
0C1800
0C1800
0C1800
0C1800
0C0C00
0C0C00
0C0C00
0C0C00
0C0600
0C0600
3F0780
3F0780
000000
000000
000000
000000
000000
000000
000000
000000
000000
000000
ENDCHAR

STARTCHAR S
ENCODING 83
SWIDTH 720 0
DWIDTH 18 0
BBX 18 50 0 -10
BITMAP
000000
000000
000000
000000
000000
000000
000000
000000
000000
000000
07F600
07F600
0C0E00
0C0E00
180600
180600
180600
180600
1C0000
1C0000
0F8000
0F8000
03F000
03F000
007C00
007C00
000E00
000E00
000600
000600
180600
180600
180600
180600
180600
180600
1E0C00
1E0C00
1BF800
1BF800
000000
000000
000000
000000
000000
000000
000000
000000
000000
000000
ENDCHAR

STARTCHAR T
ENCODING 84
SWIDTH 720 0
DWIDTH 18 0
BBX 18 50 0 -10
BITMAP
000000
000000
000000
000000
000000
000000
000000
000000
000000
000000
3FFF00
3FFF00
30C300
30C300
30C300
30C300
30C300
30C300
30C300
30C300
00C000
00C000
00C000
00C000
00C000
00C000
00C000
00C000
00C000
00C000
00C000
00C000
00C000
00C000
00C000
00C000
00C000
00C000
07F800
07F800
000000
000000
000000
000000
000000
000000
000000
000000
000000
000000
ENDCHAR

STARTCHAR U
ENCODING 85
SWIDTH 720 0
DWIDTH 18 0
BBX 18 50 0 -10
BITMAP
000000
000000
000000
000000
000000
000000
000000
000000
000000
000000
7E1F80
7E1F80
180600
180600
180600
180600
180600
180600
180600
180600
180600
180600
180600
180600
180600
180600
180600
180600
180600
180600
180600
180600
180600
180600
180600
180600
0C0C00
0C0C00
07F800
07F800
000000
000000
000000
000000
000000
000000
000000
000000
000000
000000
ENDCHAR

STARTCHAR V
ENCODING 86
SWIDTH 720 0
DWIDTH 18 0
BBX 18 50 0 -10
BITMAP
000000
000000
000000
000000
000000
000000
000000
000000
000000
000000
3F3F80
3F3F80
0C0600
0C0600
0C0600
0C0600
0C0600
0C0600
060C00
060C00
060C00
060C00
060C00
060C00
031800
031800
031800
031800
031800
031800
01B000
01B000
01B000
01B000
01B000
01B000
00E000
00E000
00E000
00E000
000000
000000
000000
000000
000000
000000
000000
000000
000000
000000
ENDCHAR

STARTCHAR W
ENCODING 87
SWIDTH 720 0
DWIDTH 18 0
BBX 18 50 0 -10
BITMAP
000000
000000
000000
000000
000000
000000
000000
000000
000000
000000
780780
780780
300300
300300
300300
300300
30C300
30C300
30C300
30C300
18C600
18C600
18C600
18C600
19E600
19E600
19E600
19E600
192600
192600
1B3600
1B3600
1B3600
1B3600
0A1400
0A1400
0E1C00
0E1C00
0E1C00
0E1C00
000000
000000
000000
000000
000000
000000
000000
000000
000000
000000
ENDCHAR

STARTCHAR X
ENCODING 88
SWIDTH 720 0
DWIDTH 18 0
BBX 18 50 0 -10
BITMAP
000000
000000
000000
000000
000000
000000
000000
000000
000000
000000
3E0F00
3E0F00
1C0600
1C0600
0E0C00
0E0C00
061800
061800
031000
031000
03B000
03B000
01E000
01E000
00E000
00E000
01F000
01F000
033800
033800
061C00
061C00
060C00
060C00
0C0600
0C0600
1C0700
1C0700
3E0F80
3E0F80
000000
000000
000000
000000
000000
000000
000000
000000
000000
000000
ENDCHAR

STARTCHAR Y
ENCODING 89
SWIDTH 720 0
DWIDTH 18 0
BBX 18 50 0 -10
BITMAP
000000
000000
000000
000000
000000
000000
000000
000000
000000
000000
7F3F80
7F3F80
1C0600
1C0600
0C0E00
0C0E00
0E0C00
0E0C00
061800
061800
033000
033000
033000
033000
01E000
01E000
01E000
01E000
00C000
00C000
00C000
00C000
00C000
00C000
00C000
00C000
00C000
00C000
07F800
07F800
000000
000000
000000
000000
000000
000000
000000
000000
000000
000000
ENDCHAR

STARTCHAR Z
ENCODING 90
SWIDTH 720 0
DWIDTH 18 0
BBX 18 50 0 -10
BITMAP
000000
000000
000000
000000
000000
000000
000000
000000
000000
000000
1FFE00
1FFE00
180600
180600
180E00
180E00
181C00
181C00
003800
003800
003000
003000
006000
006000
00C000
00C000
018000
018000
030000
030000
070000
070000
0E0600
0E0600
1C0600
1C0600
180600
180600
1FFE00
1FFE00
000000
000000
000000
000000
000000
000000
000000
000000
000000
000000
ENDCHAR

STARTCHAR bracketleft
ENCODING 91
SWIDTH 720 0
DWIDTH 18 0
BBX 18 50 0 -10
BITMAP
000000
000000
000000
000000
01FC00
01FC00
018000
018000
018000
018000
018000
018000
018000
018000
018000
018000
018000
018000
018000
018000
018000
018000
018000
018000
018000
018000
018000
018000
018000
018000
018000
018000
018000
018000
018000
018000
018000
018000
018000
018000
018000
018000
018000
018000
018000
018000
01FC00
01FC00
000000
000000
ENDCHAR

STARTCHAR backslash
ENCODING 92
SWIDTH 720 0
DWIDTH 18 0
BBX 18 50 0 -10
BITMAP
000000
000000
000000
000000
000000
000000
0C0000
0C0000
0C0000
0C0000
060000
060000
060000
060000
030000
030000
030000
030000
018000
018000
018000
018000
00C000
00C000
00C000
00C000
00C000
00C000
006000
006000
006000
006000
003000
003000
003000
003000
001800
001800
001800
001800
000C00
000C00
000C00
000C00
000000
000000
000000
000000
000000
000000
ENDCHAR

STARTCHAR bracketright
ENCODING 93
SWIDTH 720 0
DWIDTH 18 0
BBX 18 50 0 -10
BITMAP
000000
000000
000000
000000
07E000
07E000
006000
006000
006000
006000
006000
006000
006000
006000
006000
006000
006000
006000
006000
006000
006000
006000
006000
006000
006000
006000
006000
006000
006000
006000
006000
006000
006000
006000
006000
006000
006000
006000
006000
006000
006000
006000
006000
006000
006000
006000
07E000
07E000
000000
000000
ENDCHAR

STARTCHAR asciicircum
ENCODING 94
SWIDTH 720 0
DWIDTH 18 0
BBX 18 50 0 -10
BITMAP
000000
000000
000000
000000
000000
000000
000000
000000
000000
000000
000000
000000
000000
000000
000000
000000
000000
000000
00C000
00C000
03F000
03F000
073800
073800
1C0E00
1C0E00
000000
000000
000000
000000
000000
000000
000000
000000
000000
000000
000000
000000
000000
000000
000000
000000
000000
000000
000000
000000
000000
000000
000000
000000
ENDCHAR

STARTCHAR ldblank
ENCODING 95
SWIDTH 720 0
DWIDTH 18 0
BBX 18 50 0 -10
BITMAP
000000
000000
000000
000000
000000
000000
000000
000000
000000
000000
000000
000000
000000
000000
000000
000000
000000
000000
000000
000000
000000
000000
000000
000000
000000
000000
000000
000000
000000
000000
000000
000000
000000
000000
000000
000000
000000
000000
000000
000000
000000
000000
000000
000000
000000
000000
000000
000000
000000
000000
ENDCHAR

STARTCHAR diamond
ENCODING 96
SWIDTH 720 0
DWIDTH 18 0
BBX 18 50 0 -10
BITMAP
000000
000000
000000
000000
000000
000000
000000
000000
000000
000000
000000
000000
00C000
00C000
01E000
01E000
03F000
03F000
07F800
07F800
0FFC00
0FFC00
1FFE00
1FFE00
3FFF00
3FFF00
1FFE00
1FFE00
0FFC00
0FFC00
07F800
07F800
03F000
03F000
01E000
01E000
00C000
00C000
000000
000000
000000
000000
000000
000000
000000
000000
000000
000000
000000
000000
ENDCHAR

STARTCHAR checkerboard
ENCODING 97
SWIDTH 720 0
DWIDTH 18 0
BBX 18 50 0 -10
BITMAP
AAAA80
555540
AAAA80
555540
AAAA80
555540
AAAA80
555540
AAAA80
555540
AAAA80
555540
AAAA80
555540
AAAA80
555540
AAAA80
555540
AAAA80
555540
AAAA80
555540
AAAA80
555540
AAAA80
555540
AAAA80
555540
AAAA80
555540
AAAA80
555540
AAAA80
555540
AAAA80
555540
AAAA80
555540
AAAA80
555540
AAAA80
555540
AAAA80
555540
AAAA80
555540
AAAA80
555540
AAAA80
555540
ENDCHAR

STARTCHAR HT
ENCODING 98
SWIDTH 720 0
DWIDTH 18 0
BBX 18 50 0 -10
BITMAP
000000
000000
000000
000000
000000
000000
000000
000000
30C000
30C000
30C000
30C000
30C000
30C000
30C000
30C000
3FC000
3FC000
30C000
30C000
30C000
30C000
30C000
30C000
30C000
30C000
000000
000000
00FF00
00FF00
001800
001800
001800
001800
001800
001800
001800
001800
001800
001800
001800
001800
001800
001800
000000
000000
000000
000000
000000
000000
ENDCHAR

STARTCHAR FF
ENCODING 99
SWIDTH 720 0
DWIDTH 18 0
BBX 18 50 0 -10
BITMAP
000000
000000
000000
000000
000000
000000
000000
000000
1FC000
1FC000
180000
180000
180000
180000
180000
180000
1FC000
1FC000
180000
180000
180000
180000
180000
180000
180000
180000
00FE00
00FE00
00C000
00C000
00C000
00C000
00C000
00C000
00FE00
00FE00
00C000
00C000
00C000
00C000
00C000
00C000
00C000
00C000
000000
000000
000000
000000
000000
000000
ENDCHAR

STARTCHAR CR
ENCODING 100
SWIDTH 720 0
DWIDTH 18 0
BBX 18 50 0 -10
BITMAP
000000
000000
000000
000000
000000
000000
000000
000000
0F8000
0F8000
18C000
18C000
306000
306000
300000
300000
300000
300000
300000
300000
306000
306000
18C000
18C000
0F8000
0F8000
000000
000000
00FE00
00FE00
00C700
00C700
00C300
00C300
00C600
00C600
00FC00
00FC00
00CC00
00CC00
00C600
00C600
00C300
00C300
000000
000000
000000
000000
000000
000000
ENDCHAR

STARTCHAR LF
ENCODING 101
SWIDTH 720 0
DWIDTH 18 0
BBX 18 50 0 -10
BITMAP
000000
000000
000000
000000
000000
000000
000000
000000
180000
180000
180000
180000
180000
180000
180000
180000
180000
180000
180000
180000
180000
180000
1FC000
1FC000
000000
000000
007F00
007F00
006000
006000
006000
006000
006000
006000
007F00
007F00
006000
006000
006000
006000
006000
006000
006000
006000
000000
000000
000000
000000
000000
000000
ENDCHAR

STARTCHAR degree
ENCODING 102
SWIDTH 720 0
DWIDTH 18 0
BBX 18 50 0 -10
BITMAP
000000
000000
000000
000000
000000
000000
000000
000000
03E000
03E000
07F000
07F000
0C1800
0C1800
0C1800
0C1800
0C1800
0C1800
0C1800
0C1800
07F000
07F000
03E000
03E000
000000
000000
000000
000000
000000
000000
000000
000000
000000
000000
000000
000000
000000
000000
000000
000000
000000
000000
000000
000000
000000
000000
000000
000000
000000
000000
ENDCHAR

STARTCHAR plusminus
ENCODING 103
SWIDTH 720 0
DWIDTH 18 0
BBX 18 50 0 -10
BITMAP
000000
000000
000000
000000
000000
000000
000000
000000
000000
000000
000000
000000
00C000
00C000
00C000
00C000
00C000
00C000
00C000
00C000
00C000
00C000
1FFE00
1FFE00
00C000
00C000
00C000
00C000
00C000
00C000
00C000
00C000
00C000
00C000
000000
000000
1FFE00
1FFE00
000000
000000
000000
000000
000000
000000
000000
000000
000000
000000
000000
000000
ENDCHAR

STARTCHAR NL
ENCODING 104
SWIDTH 720 0
DWIDTH 18 0
BBX 18 50 0 -10
BITMAP
000000
000000
000000
000000
000000
000000
000000
000000
102000
102000
182000
182000
1C2000
1C2000
162000
162000
132000
132000
11A000
11A000
10E000
10E000
106000
106000
102000
102000
000000
000000
006000
006000
006000
006000
006000
006000
006000
006000
006000
006000
006000
006000
006000
006000
007F00
007F00
000000
000000
000000
000000
000000
000000
ENDCHAR

STARTCHAR VT
ENCODING 105
SWIDTH 720 0
DWIDTH 18 0
BBX 18 50 0 -10
BITMAP
000000
000000
000000
000000
000000
000000
000000
000000
183000
183000
183000
183000
0C6000
0C6000
0C6000
0C6000
044000
044000
06C000
06C000
028000
028000
038000
038000
010000
010000
000000
000000
00FF00
00FF00
001800
001800
001800
001800
001800
001800
001800
001800
001800
001800
001800
001800
001800
001800
000000
000000
000000
000000
000000
000000
ENDCHAR

STARTCHAR ldcornsqlr
ENCODING 106
SWIDTH 720 0
DWIDTH 18 0
BBX 18 50 0 -10
BITMAP
018000
018000
018000
018000
018000
018000
018000
018000
018000
018000
018000
018000
018000
018000
018000
018000
018000
018000
018000
018000
018000
018000
018000
018000
018000
018000
FF8000
FF8000
000000
000000
000000
000000
000000
000000
000000
000000
000000
000000
000000
000000
000000
000000
000000
000000
000000
000000
000000
000000
000000
000000
ENDCHAR

STARTCHAR ldcornsqur
ENCODING 107
SWIDTH 720 0
DWIDTH 18 0
BBX 18 50 0 -10
BITMAP
000000
000000
000000
000000
000000
000000
000000
000000
000000
000000
000000
000000
000000
000000
000000
000000
000000
000000
000000
000000
000000
000000
000000
000000
000000
000000
FF8000
FF8000
018000
018000
018000
018000
018000
018000
018000
018000
018000
018000
018000
018000
018000
018000
018000
018000
018000
018000
018000
018000
018000
018000
ENDCHAR

STARTCHAR ldcornsqul
ENCODING 108
SWIDTH 720 0
DWIDTH 18 0
BBX 18 50 0 -10
BITMAP
000000
000000
000000
000000
000000
000000
000000
000000
000000
000000
000000
000000
000000
000000
000000
000000
000000
000000
000000
000000
000000
000000
000000
000000
000000
000000
01FFC0
01FFC0
018000
018000
018000
018000
018000
018000
018000
018000
018000
018000
018000
018000
018000
018000
018000
018000
018000
018000
018000
018000
018000
018000
ENDCHAR

STARTCHAR ldcornsqll
ENCODING 109
SWIDTH 720 0
DWIDTH 18 0
BBX 18 50 0 -10
BITMAP
018000
018000
018000
018000
018000
018000
018000
018000
018000
018000
018000
018000
018000
018000
018000
018000
018000
018000
018000
018000
018000
018000
018000
018000
018000
018000
01FFC0
01FFC0
000000
000000
000000
000000
000000
000000
000000
000000
000000
000000
000000
000000
000000
000000
000000
000000
000000
000000
000000
000000
000000
000000
ENDCHAR

STARTCHAR ldcross
ENCODING 110
SWIDTH 720 0
DWIDTH 18 0
BBX 18 50 0 -10
BITMAP
018000
018000
018000
018000
018000
018000
018000
018000
018000
018000
018000
018000
018000
018000
018000
018000
018000
018000
018000
018000
018000
018000
018000
018000
018000
018000
FFFFC0
FFFFC0
018000
018000
018000
018000
018000
018000
018000
018000
018000
018000
018000
018000
018000
018000
018000
018000
018000
018000
018000
018000
018000
018000
ENDCHAR

STARTCHAR ldscan1
ENCODING 111
SWIDTH 720 0
DWIDTH 18 0
BBX 18 50 0 -10
BITMAP
000000
000000
000000
000000
FFFFC0
FFFFC0
000000
000000
000000
000000
000000
000000
000000
000000
000000
000000
000000
000000
000000
000000
000000
000000
000000
000000
000000
000000
000000
000000
000000
000000
000000
000000
000000
000000
000000
000000
000000
000000
000000
000000
000000
000000
000000
000000
000000
000000
000000
000000
000000
000000
ENDCHAR

STARTCHAR ldscan3
ENCODING 112
SWIDTH 720 0
DWIDTH 18 0
BBX 18 50 0 -10
BITMAP
000000
000000
000000
000000
000000
000000
000000
000000
000000
000000
000000
000000
000000
000000
000000
000000
FFFFC0
FFFFC0
000000
000000
000000
000000
000000
000000
000000
000000
000000
000000
000000
000000
000000
000000
000000
000000
000000
000000
000000
000000
000000
000000
000000
000000
000000
000000
000000
000000
000000
000000
000000
000000
ENDCHAR

STARTCHAR ldhorizontal
ENCODING 113
SWIDTH 720 0
DWIDTH 18 0
BBX 18 50 0 -10
BITMAP
000000
000000
000000
000000
000000
000000
000000
000000
000000
000000
000000
000000
000000
000000
000000
000000
000000
000000
000000
000000
000000
000000
000000
000000
000000
000000
FFFFC0
FFFFC0
000000
000000
000000
000000
000000
000000
000000
000000
000000
000000
000000
000000
000000
000000
000000
000000
000000
000000
000000
000000
000000
000000
ENDCHAR

STARTCHAR ldscan7
ENCODING 114
SWIDTH 720 0
DWIDTH 18 0
BBX 18 50 0 -10
BITMAP
000000
000000
000000
000000
000000
000000
000000
000000
000000
000000
000000
000000
000000
000000
000000
000000
000000
000000
000000
000000
000000
000000
000000
000000
000000
000000
000000
000000
000000
000000
000000
000000
000000
000000
000000
000000
000000
000000
FFFFC0
FFFFC0
000000
000000
000000
000000
000000
000000
000000
000000
000000
000000
ENDCHAR

STARTCHAR ldscan9
ENCODING 115
SWIDTH 720 0
DWIDTH 18 0
BBX 18 50 0 -10
BITMAP
000000
000000
000000
000000
000000
000000
000000
000000
000000
000000
000000
000000
000000
000000
000000
000000
000000
000000
000000
000000
000000
000000
000000
000000
000000
000000
000000
000000
000000
000000
000000
000000
000000
000000
000000
000000
000000
000000
000000
000000
000000
000000
000000
000000
000000
000000
000000
000000
FFFFC0
FFFFC0
ENDCHAR

STARTCHAR ldteelft
ENCODING 116
SWIDTH 720 0
DWIDTH 18 0
BBX 18 50 0 -10
BITMAP
018000
018000
018000
018000
018000
018000
018000
018000
018000
018000
018000
018000
018000
018000
018000
018000
018000
018000
018000
018000
018000
018000
018000
018000
018000
018000
01FFC0
01FFC0
018000
018000
018000
018000
018000
018000
018000
018000
018000
018000
018000
018000
018000
018000
018000
018000
018000
018000
018000
018000
018000
018000
ENDCHAR

STARTCHAR ldteert
ENCODING 117
SWIDTH 720 0
DWIDTH 18 0
BBX 18 50 0 -10
BITMAP
018000
018000
018000
018000
018000
018000
018000
018000
018000
018000
018000
018000
018000
018000
018000
018000
018000
018000
018000
018000
018000
018000
018000
018000
018000
018000
FF8000
FF8000
018000
018000
018000
018000
018000
018000
018000
018000
018000
018000
018000
018000
018000
018000
018000
018000
018000
018000
018000
018000
018000
018000
ENDCHAR

STARTCHAR ldteebt
ENCODING 118
SWIDTH 720 0
DWIDTH 18 0
BBX 18 50 0 -10
BITMAP
018000
018000
018000
018000
018000
018000
018000
018000
018000
018000
018000
018000
018000
018000
018000
018000
018000
018000
018000
018000
018000
018000
018000
018000
018000
018000
FFFFC0
FFFFC0
000000
000000
000000
000000
000000
000000
000000
000000
000000
000000
000000
000000
000000
000000
000000
000000
000000
000000
000000
000000
000000
000000
ENDCHAR

STARTCHAR ldteetp
ENCODING 119
SWIDTH 720 0
DWIDTH 18 0
BBX 18 50 0 -10
BITMAP
000000
000000
000000
000000
000000
000000
000000
000000
000000
000000
000000
000000
000000
000000
000000
000000
000000
000000
000000
000000
000000
000000
000000
000000
000000
000000
FFFFC0
FFFFC0
018000
018000
018000
018000
018000
018000
018000
018000
018000
018000
018000
018000
018000
018000
018000
018000
018000
018000
018000
018000
018000
018000
ENDCHAR

STARTCHAR ldvertical
ENCODING 120
SWIDTH 720 0
DWIDTH 18 0
BBX 18 50 0 -10
BITMAP
018000
018000
018000
018000
018000
018000
018000
018000
018000
018000
018000
018000
018000
018000
018000
018000
018000
018000
018000
018000
018000
018000
018000
018000
018000
018000
018000
018000
018000
018000
018000
018000
018000
018000
018000
018000
018000
018000
018000
018000
018000
018000
018000
018000
018000
018000
018000
018000
018000
018000
ENDCHAR

STARTCHAR lessequal
ENCODING 121
SWIDTH 720 0
DWIDTH 18 0
BBX 18 50 0 -10
BITMAP
000000
000000
000000
000000
000000
000000
000000
000000
000000
000000
000000
000000
000000
000000
000000
000000
000000
001E00
001E00
01E000
01E000
0E0000
0E0000
380000
380000
0E0000
0E0000
01E000
01E000
001E00
001E00
000000
000000
000000
000000
000000
3FFE00
3FFE00
000000
000000
000000
000000
000000
000000
000000
000000
000000
000000
000000
000000
ENDCHAR

STARTCHAR greaterequal
ENCODING 122
SWIDTH 720 0
DWIDTH 18 0
BBX 18 50 0 -10
BITMAP
000000
000000
000000
000000
000000
000000
000000
000000
000000
000000
000000
000000
000000
000000
000000
000000
000000
3C0000
3C0000
03C000
03C000
003800
003800
000E00
000E00
003800
003800
03C000
03C000
3C0000
3C0000
000000
000000
000000
000000
000000
3FFE00
3FFE00
000000
000000
000000
000000
000000
000000
000000
000000
000000
000000
000000
000000
ENDCHAR

STARTCHAR pi
ENCODING 123
SWIDTH 720 0
DWIDTH 18 0
BBX 18 50 0 -10
BITMAP
000000
000000
000000
000000
000000
000000
000000
000000
000000
000000
000000
000000
000000
000000
000000
000000
3FFF00
3FFF00
061800
061800
061800
061800
061800
061800
0C3000
0C3000
0C3000
0C3000
0C3000
0C3000
0C3000
0C3000
186000
186000
186000
186000
186000
186000
187800
187800
000000
000000
000000
000000
000000
000000
000000
000000
000000
000000
ENDCHAR

STARTCHAR notequal
ENCODING 124
SWIDTH 720 0
DWIDTH 18 0
BBX 18 50 0 -10
BITMAP
000000
000000
000000
000000
000000
000000
000000
000000
000000
000000
000000
000000
000000
000000
003000
003000
003000
003000
003000
003000
3FFF00
3FFF00
00C000
00C000
00C000
00C000
00C000
00C000
3FFF00
3FFF00
030000
030000
030000
030000
030000
030000
000000
000000
000000
000000
000000
000000
000000
000000
000000
000000
000000
000000
000000
000000
ENDCHAR

STARTCHAR sterling
ENCODING 125
SWIDTH 720 0
DWIDTH 18 0
BBX 18 50 0 -10
BITMAP
000000
000000
000000
000000
000000
000000
000000
000000
000000
000000
01F000
01F000
031C00
031C00
060C00
060C00
060C00
060C00
030000
030000
030000
030000
018000
018000
0FF800
0FF800
018000
018000
018000
018000
030000
030000
030000
030000
0E0300
0E0300
1FE300
1FE300
30FE00
30FE00
000000
000000
000000
000000
000000
000000
000000
000000
000000
000000
ENDCHAR

STARTCHAR periodcentered
ENCODING 126
SWIDTH 720 0
DWIDTH 18 0
BBX 18 50 0 -10
BITMAP
000000
000000
000000
000000
000000
000000
000000
000000
000000
000000
000000
000000
000000
000000
000000
000000
000000
000000
000000
000000
00C000
00C000
01E000
01E000
03F000
03F000
01E000
01E000
00C000
00C000
000000
000000
000000
000000
000000
000000
000000
000000
000000
000000
000000
000000
000000
000000
000000
000000
000000
000000
000000
000000
ENDCHAR

STARTCHAR Error
ENCODING 159
SWIDTH 720 0
DWIDTH 18 0
BBX 18 50 0 -10
BITMAP
0FFC00
0FFC00
3FFF00
3FFF00
7FFF80
7FFF80
FC1F80
FC1F80
F80F80
F80F80
F80F80
F80F80
FC0F80
FC0F80
FE0000
FE0000
7F0000
7F0000
3F8000
3F8000
1FC000
1FC000
0FE000
0FE000
07E000
07E000
07E000
07E000
07E000
07E000
07E000
07E000
000000
000000
000000
000000
000000
000000
03C000
03C000
07E000
07E000
0FF000
0FF000
0FF000
0FF000
07E000
07E000
03C000
03C000
ENDCHAR

STARTCHAR space
ENCODING 160
SWIDTH 720 0
DWIDTH 18 0
BBX 18 50 0 -10
BITMAP
000000
000000
000000
000000
000000
000000
000000
000000
000000
000000
000000
000000
000000
000000
000000
000000
000000
000000
000000
000000
000000
000000
000000
000000
000000
000000
000000
000000
000000
000000
000000
000000
000000
000000
000000
000000
000000
000000
000000
000000
000000
000000
000000
000000
000000
000000
000000
000000
000000
000000
ENDCHAR

STARTCHAR ldradicalbt
ENCODING 161
SWIDTH 720 0
DWIDTH 18 0
BBX 18 50 0 -10
BITMAP
018000
018000
018000
018000
018000
018000
018000
018000
018000
018000
018000
018000
018000
018000
018000
018000
018000
018000
118000
118000
398000
398000
7D8000
7D8000
5F8000
5F8000
0F8000
0F8000
078000
078000
038000
038000
018000
018000
000000
000000
000000
000000
000000
000000
000000
000000
000000
000000
000000
000000
000000
000000
000000
000000
ENDCHAR

STARTCHAR ldradicaltp
ENCODING 162
SWIDTH 720 0
DWIDTH 18 0
BBX 18 50 0 -10
BITMAP
000000
000000
000000
000000
000000
000000
000000
000000
000000
000000
000000
000000
000000
000000
000000
000000
000000
000000
000000
000000
000000
000000
000000
000000
000000
000000
01FFC0
01FFC0
018000
018000
018000
018000
018000
018000
018000
018000
018000
018000
018000
018000
018000
018000
018000
018000
018000
018000
018000
018000
018000
018000
ENDCHAR

STARTCHAR ldhorizontal
ENCODING 163
SWIDTH 720 0
DWIDTH 18 0
BBX 18 50 0 -10
BITMAP
000000
000000
000000
000000
000000
000000
000000
000000
000000
000000
000000
000000
000000
000000
000000
000000
000000
000000
000000
000000
000000
000000
000000
000000
000000
000000
FFFFC0
FFFFC0
000000
000000
000000
000000
000000
000000
000000
000000
000000
000000
000000
000000
000000
000000
000000
000000
000000
000000
000000
000000
000000
000000
ENDCHAR

STARTCHAR ldintegraltp
ENCODING 164
SWIDTH 720 0
DWIDTH 18 0
BBX 18 50 0 -10
BITMAP
000000
000000
000000
000000
00F800
00F800
018C00
018C00
018C00
018C00
018000
018000
018000
018000
018000
018000
018000
018000
018000
018000
018000
018000
018000
018000
018000
018000
018000
018000
018000
018000
018000
018000
018000
018000
018000
018000
018000
018000
018000
018000
018000
018000
018000
018000
018000
018000
018000
018000
018000
018000
ENDCHAR

STARTCHAR ldintegralbt
ENCODING 165
SWIDTH 720 0
DWIDTH 18 0
BBX 18 50 0 -10
BITMAP
018000
018000
018000
018000
018000
018000
018000
018000
018000
018000
018000
018000
018000
018000
018000
018000
018000
018000
018000
018000
018000
018000
018000
018000
018000
018000
018000
018000
018000
018000
018000
018000
018000
018000
018000
018000
018000
018000
018000
018000
018000
018000
018000
018000
318000
318000
318000
318000
1F0000
1F0000
ENDCHAR

STARTCHAR ldvertical
ENCODING 166
SWIDTH 720 0
DWIDTH 18 0
BBX 18 50 0 -10
BITMAP
018000
018000
018000
018000
018000
018000
018000
018000
018000
018000
018000
018000
018000
018000
018000
018000
018000
018000
018000
018000
018000
018000
018000
018000
018000
018000
018000
018000
018000
018000
018000
018000
018000
018000
018000
018000
018000
018000
018000
018000
018000
018000
018000
018000
018000
018000
018000
018000
018000
018000
ENDCHAR

STARTCHAR ldbracketlfttp
ENCODING 167
SWIDTH 720 0
DWIDTH 18 0
BBX 18 50 0 -10
BITMAP
000000
000000
000000
000000
01FE00
01FE00
018000
018000
018000
018000
018000
018000
018000
018000
018000
018000
018000
018000
018000
018000
018000
018000
018000
018000
018000
018000
018000
018000
018000
018000
018000
018000
018000
018000
018000
018000
018000
018000
018000
018000
018000
018000
018000
018000
018000
018000
018000
018000
018000
018000
ENDCHAR

STARTCHAR ldbracketlftbt
ENCODING 168
SWIDTH 720 0
DWIDTH 18 0
BBX 18 50 0 -10
BITMAP
018000
018000
018000
018000
018000
018000
018000
018000
018000
018000
018000
018000
018000
018000
018000
018000
018000
018000
018000
018000
018000
018000
018000
018000
018000
018000
018000
018000
018000
018000
018000
018000
018000
018000
018000
018000
018000
018000
018000
018000
018000
018000
018000
018000
018000
018000
018000
018000
01FE00
01FE00
ENDCHAR

STARTCHAR ldbracketrttp
ENCODING 169
SWIDTH 720 0
DWIDTH 18 0
BBX 18 50 0 -10
BITMAP
000000
000000
000000
000000
7F8000
7F8000
018000
018000
018000
018000
018000
018000
018000
018000
018000
018000
018000
018000
018000
018000
018000
018000
018000
018000
018000
018000
018000
018000
018000
018000
018000
018000
018000
018000
018000
018000
018000
018000
018000
018000
018000
018000
018000
018000
018000
018000
018000
018000
018000
018000
ENDCHAR

STARTCHAR ldbracketrtbt
ENCODING 170
SWIDTH 720 0
DWIDTH 18 0
BBX 18 50 0 -10
BITMAP
018000
018000
018000
018000
018000
018000
018000
018000
018000
018000
018000
018000
018000
018000
018000
018000
018000
018000
018000
018000
018000
018000
018000
018000
018000
018000
018000
018000
018000
018000
018000
018000
018000
018000
018000
018000
018000
018000
018000
018000
018000
018000
018000
018000
018000
018000
7F8000
7F8000
000000
000000
ENDCHAR

STARTCHAR ldbracelfttp
ENCODING 171
SWIDTH 720 0
DWIDTH 18 0
BBX 18 50 0 -10
BITMAP
000000
000000
000000
000000
000F00
000F00
003800
003800
006000
006000
00C000
00C000
00C000
00C000
018000
018000
018000
018000
018000
018000
018000
018000
018000
018000
018000
018000
018000
018000
018000
018000
018000
018000
018000
018000
018000
018000
018000
018000
018000
018000
018000
018000
018000
018000
018000
018000
018000
018000
018000
018000
ENDCHAR

STARTCHAR ldbracelftbt
ENCODING 172
SWIDTH 720 0
DWIDTH 18 0
BBX 18 50 0 -10
BITMAP
018000
018000
018000
018000
018000
018000
018000
018000
018000
018000
018000
018000
018000
018000
018000
018000
018000
018000
018000
018000
018000
018000
018000
018000
018000
018000
018000
018000
018000
018000
018000
018000
018000
018000
018000
018000
018000
018000
00C000
00C000
00C000
00C000
006000
006000
003800
003800
000F00
000F00
000000
000000
ENDCHAR

STARTCHAR ldbracerttp
ENCODING 173
SWIDTH 720 0
DWIDTH 18 0
BBX 18 50 0 -10
BITMAP
000000
000000
000000
000000
780000
780000
0E0000
0E0000
060000
060000
030000
030000
030000
030000
018000
018000
018000
018000
018000
018000
018000
018000
018000
018000
018000
018000
018000
018000
018000
018000
018000
018000
018000
018000
018000
018000
018000
018000
018000
018000
018000
018000
018000
018000
018000
018000
018000
018000
018000
018000
ENDCHAR

STARTCHAR ldbracertbt
ENCODING 174
SWIDTH 720 0
DWIDTH 18 0
BBX 18 50 0 -10
BITMAP
018000
018000
018000
018000
018000
018000
018000
018000
018000
018000
018000
018000
018000
018000
018000
018000
018000
018000
018000
018000
018000
018000
018000
018000
018000
018000
018000
018000
018000
018000
018000
018000
018000
018000
018000
018000
018000
018000
018000
018000
030000
030000
030000
030000
060000
060000
1C0000
1C0000
F00000
F00000
ENDCHAR

STARTCHAR ldbracelftmid
ENCODING 175
SWIDTH 720 0
DWIDTH 18 0
BBX 18 50 0 -10
BITMAP
018000
018000
018000
018000
018000
018000
018000
018000
018000
018000
018000
018000
018000
018000
018000
018000
018000
018000
018000
018000
018000
018000
018000
018000
070000
070000
3C0000
3C0000
070000
070000
018000
018000
018000
018000
018000
018000
018000
018000
018000
018000
018000
018000
018000
018000
018000
018000
018000
018000
018000
018000
ENDCHAR

STARTCHAR ldbracertmid
ENCODING 176
SWIDTH 720 0
DWIDTH 18 0
BBX 18 50 0 -10
BITMAP
018000
018000
018000
018000
018000
018000
018000
018000
018000
018000
018000
018000
018000
018000
018000
018000
018000
018000
018000
018000
018000
018000
018000
018000
00E000
00E000
003C00
003C00
00E000
00E000
018000
018000
018000
018000
018000
018000
018000
018000
018000
018000
018000
018000
018000
018000
018000
018000
018000
018000
018000
018000
ENDCHAR

STARTCHAR ldsigmalfttp
ENCODING 177
SWIDTH 720 0
DWIDTH 18 0
BBX 18 50 0 -10
BITMAP
000000
000000
000000
000000
000000
000000
000000
000000
000000
000000
000000
000000
000000
000000
000000
000000
000000
000000
000000
000000
000000
000000
000000
000000
000000
000000
00FFC0
00FFC0
00C000
00C000
00C000
00C000
006000
006000
007000
007000
003000
003000
001800
001800
000C00
000C00
000600
000600
000700
000700
000380
000380
0001C0
0001C0
ENDCHAR

STARTCHAR ldsigmalftbt
ENCODING 178
SWIDTH 720 0
DWIDTH 18 0
BBX 18 50 0 -10
BITMAP
000040
0000C0
0000C0
0000C0
000180
000180
000380
000380
000300
000300
000600
000600
000C00
000C00
000C00
000C00
001800
001800
003800
003000
003000
003000
006000
006000
006000
006000
007FC0
007FC0
000000
000000
000000
000000
000000
000000
000000
000000
000000
000000
000000
000000
000000
000000
000000
000000
000000
000000
000000
000000
000000
000000
ENDCHAR

STARTCHAR ldbackslash
ENCODING 179
SWIDTH 720 0
DWIDTH 18 0
BBX 18 50 0 -10
BITMAP
800000
800000
C00000
C00000
E00000
E00000
600000
600000
300000
300000
300000
300000
180000
180000
0C0000
0E0000
0E0000
060000
070000
070000
030000
038000
018000
018000
00C000
00C000
00E000
00E000
006000
006000
003000
003000
003800
003800
001800
001800
000C00
000C00
000E00
000E00
000600
000600
000300
000300
000380
000180
0001C0
0001C0
0000C0
0000C0
ENDCHAR

STARTCHAR ldslash
ENCODING 180
SWIDTH 720 0
DWIDTH 18 0
BBX 18 50 0 -10
BITMAP
0000C0
0000C0
000180
000180
000380
000380
000300
000300
000600
000600
000600
000600
000C00
000C00
001800
001800
001800
001800
003000
003000
007000
007000
006000
006000
00C000
00C000
01C000
01C000
018000
018000
030000
030000
070000
070000
060000
060000
0C0000
0C0000
1C0000
1C0000
180000
180000
300000
300000
700000
700000
600000
600000
C00000
C00000
ENDCHAR

STARTCHAR ldsigmarttp
ENCODING 181
SWIDTH 720 0
DWIDTH 18 0
BBX 18 50 0 -10
BITMAP
000000
000000
000000
000000
000000
000000
000000
000000
000000
000000
000000
000000
000000
000000
000000
000000
000000
000000
000000
000000
000000
000000
000000
000000
000000
000000
FFFE00
FFFE00
000600
000600
000600
000600
000600
000600
000600
000600
000600
000600
000000
000000
000000
000000
000000
000000
000000
000000
000000
000000
000000
000000
ENDCHAR

STARTCHAR ldsigmartbt
ENCODING 182
SWIDTH 720 0
DWIDTH 18 0
BBX 18 50 0 -10
BITMAP
000000
000000
000000
000000
000000
000000
000000
000000
000000
000000
000000
000000
000000
000000
000000
000000
000600
000600
000600
000600
000600
000600
000600
000600
000600
000600
FFFE00
FFFE00
000000
000000
000000
000000
000000
000000
000000
000000
000000
000000
000000
000000
000000
000000
000000
000000
000000
000000
000000
000000
000000
000000
ENDCHAR

STARTCHAR ldsigmamid
ENCODING 183
SWIDTH 720 0
DWIDTH 18 0
BBX 18 50 0 -10
BITMAP
800000
800000
800000
800000
C00000
C00000
C00000
C00000
600000
600000
300000
300000
180000
180000
180000
180000
0C0000
0C0000
060000
060000
030000
030000
030000
030000
018000
018000
018000
018000
030000
030000
030000
030000
060000
060000
0C0000
0C0000
0C0000
0C0000
180000
180000
300000
300000
600000
600000
600000
600000
C00000
C00000
800000
800000
ENDCHAR

STARTCHAR lessequal
ENCODING 188
SWIDTH 720 0
DWIDTH 18 0
BBX 18 50 0 -10
BITMAP
000000
000000
000000
000000
000000
000000
000000
000000
000000
000000
000000
000000
000000
000000
000000
000000
000000
001E00
001E00
01E000
01E000
0E0000
0E0000
380000
380000
0E0000
0E0000
01E000
01E000
001E00
001E00
000000
000000
000000
000000
000000
3FFE00
3FFE00
000000
000000
000000
000000
000000
000000
000000
000000
000000
000000
000000
000000
ENDCHAR

STARTCHAR notequal
ENCODING 189
SWIDTH 720 0
DWIDTH 18 0
BBX 18 50 0 -10
BITMAP
000000
000000
000000
000000
000000
000000
000000
000000
000000
000000
000000
000000
000000
000000
003000
003000
003000
003000
003000
003000
3FFF00
3FFF00
00C000
00C000
00C000
00C000
00C000
00C000
3FFF00
3FFF00
030000
030000
030000
030000
030000
030000
000000
000000
000000
000000
000000
000000
000000
000000
000000
000000
000000
000000
000000
000000
ENDCHAR

STARTCHAR greaterequal
ENCODING 190
SWIDTH 720 0
DWIDTH 18 0
BBX 18 50 0 -10
BITMAP
000000
000000
000000
000000
000000
000000
000000
000000
000000
000000
000000
000000
000000
000000
000000
000000
000000
3C0000
3C0000
03C000
03C000
003800
003800
000E00
000E00
003800
003800
03C000
03C000
3C0000
3C0000
000000
000000
000000
000000
000000
3FFE00
3FFE00
000000
000000
000000
000000
000000
000000
000000
000000
000000
000000
000000
000000
ENDCHAR

STARTCHAR integral
ENCODING 191
SWIDTH 720 0
DWIDTH 18 0
BBX 18 50 0 -10
BITMAP
000000
000000
00F800
00F800
018400
018400
018000
018000
018000
018000
018000
018000
018000
018000
018000
018000
018000
018000
018000
018000
018000
018000
018000
018000
018000
018000
018000
018000
018000
018000
018000
018000
018000
018000
018000
018000
018000
018000
018000
018000
018000
018000
018000
018000
018000
018000
218000
218000
1F0000
1F0000
ENDCHAR

STARTCHAR therefore
ENCODING 192
SWIDTH 720 0
DWIDTH 18 0
BBX 18 50 0 -10
BITMAP
000000
000000
000000
000000
000000
000000
000000
000000
000000
000000
000000
000000
000000
000000
000000
000000
018000
018000
07E000
07E000
07E000
07E000
018000
018000
000000
000000
000000
000000
181800
181800
7E7E00
7E7E00
7E7E00
7E7E00
181800
181800
000000
000000
000000
000000
000000
000000
000000
000000
000000
000000
000000
000000
000000
000000
ENDCHAR

STARTCHAR proportional
ENCODING 193
SWIDTH 720 0
DWIDTH 18 0
BBX 18 50 0 -10
BITMAP
000000
000000
000000
000000
000000
000000
000000
000000
000000
000000
000000
000000
000000
000000
000000
000000
1F3E00
1F3E00
31E000
31E000
60C000
60C000
60C000
60C000
60C000
60C000
60C000
60C000
60C000
60C000
31E000
31E000
1F3E00
1F3E00
000000
000000
000000
000000
000000
000000
000000
000000
000000
000000
000000
000000
000000
000000
000000
000000
ENDCHAR

STARTCHAR infinity
ENCODING 194
SWIDTH 720 0
DWIDTH 18 0
BBX 18 50 0 -10
BITMAP
000000
000000
000000
000000
000000
000000
000000
000000
000000
000000
000000
000000
000000
000000
000000
000000
3E7C00
3E7C00
638600
638600
C18300
C18300
C18300
C18300
C18300
C18300
C18300
C18300
C18300
C18300
61C600
61C600
3E7C00
3E7C00
000000
000000
000000
000000
000000
000000
000000
000000
000000
000000
000000
000000
000000
000000
000000
000000
ENDCHAR

STARTCHAR divide
ENCODING 195
SWIDTH 720 0
DWIDTH 18 0
BBX 18 50 0 -10
BITMAP
000000
000000
000000
000000
000000
000000
000000
000000
000000
000000
000000
000000
000000
000000
000000
000000
018000
018000
018000
018000
000000
000000
000000
000000
3FFC00
3FFC00
000000
000000
000000
000000
018000
018000
018000
018000
000000
000000
000000
000000
000000
000000
000000
000000
000000
000000
000000
000000
000000
000000
000000
000000
ENDCHAR

STARTCHAR Delta
ENCODING 196
SWIDTH 720 0
DWIDTH 18 0
BBX 18 50 0 -10
BITMAP
000000
000000
000000
000000
000000
000000
000000
000000
000000
000000
018000
018000
018000
018000
03C000
03C000
03C000
03C000
066000
066000
066000
066000
066000
066000
0C3000
0C3000
0C3000
0C3000
181800
181800
181800
181800
381C00
381C00
300C00
300C00
7FFE00
7FFE00
7FFE00
7FFE00
000000
000000
000000
000000
000000
000000
000000
000000
000000
000000
ENDCHAR

STARTCHAR gradient
ENCODING 197
SWIDTH 720 0
DWIDTH 18 0
BBX 18 50 0 -10
BITMAP
000000
000000
000000
000000
000000
000000
000000
000000
000000
000000
7FFE00
7FFE00
7FFE00
7FFE00
300C00
300C00
381C00
381C00
181800
181800
181800
181800
0C3000
0C3000
0C3000
0C3000
066000
066000
066000
066000
066000
066000
03C000
03C000
03C000
03C000
018000
018000
018000
018000
000000
000000
000000
000000
000000
000000
000000
000000
000000
000000
ENDCHAR

STARTCHAR Phi
ENCODING 198
SWIDTH 720 0
DWIDTH 18 0
BBX 18 50 0 -10
BITMAP
000000
000000
000000
000000
000000
000000
000000
000000
000000
000000
0FF000
0FF000
018000
018000
018000
018000
0FF000
0FF000
199800
199800
318C00
318C00
318C00
318C00
318C00
318C00
318C00
318C00
318C00
318C00
199800
199800
0FF000
0FF000
018000
018000
018000
018000
0FF000
0FF000
000000
000000
000000
000000
000000
000000
000000
000000
000000
000000
ENDCHAR

STARTCHAR Gamma
ENCODING 199
SWIDTH 720 0
DWIDTH 18 0
BBX 18 50 0 -10
BITMAP
000000
000000
000000
000000
000000
000000
000000
000000
000000
000000
3FFE00
3FFE00
060600
060600
060600
060600
060600
060600
060000
060000
060000
060000
060000
060000
060000
060000
060000
060000
060000
060000
060000
060000
060000
060000
060000
060000
060000
060000
3FF000
3FF000
000000
000000
000000
000000
000000
000000
000000
000000
000000
000000
ENDCHAR

STARTCHAR similar
ENCODING 200
SWIDTH 720 0
DWIDTH 18 0
BBX 18 50 0 -10
BITMAP
000000
000000
000000
000000
000000
000000
000000
000000
000000
000000
000000
000000
000000
000000
000000
000000
000000
000000
000000
000000
000000
000000
0E0400
0E0400
1F8C00
1F8C00
31F800
31F800
207000
207000
000000
000000
000000
000000
000000
000000
000000
000000
000000
000000
000000
000000
000000
000000
000000
000000
000000
000000
000000
000000
ENDCHAR

STARTCHAR approxequal
ENCODING 201
SWIDTH 720 0
DWIDTH 18 0
BBX 18 50 0 -10
BITMAP
000000
000000
000000
000000
000000
000000
000000
000000
000000
000000
000000
000000
000000
000000
000000
000000
000000
000000
000000
000000
0E0400
0E0400
1F8C00
1F8C00
31F800
31F800
207000
207000
000000
000000
000000
000000
3FFC00
3FFC00
000000
000000
000000
000000
000000
000000
000000
000000
000000
000000
000000
000000
000000
000000
000000
000000
ENDCHAR

STARTCHAR Theta
ENCODING 202
SWIDTH 720 0
DWIDTH 18 0
BBX 18 50 0 -10
BITMAP
000000
000000
000000
000000
000000
000000
000000
000000
000000
000000
07E000
07E000
1C3800
1C3800
181800
181800
300C00
300C00
300C00
300C00
318C00
318C00
318C00
318C00
318C00
318C00
318C00
318C00
318C00
318C00
300C00
300C00
300C00
300C00
181800
181800
1C3800
1C3800
0FF000
0FF000
000000
000000
000000
000000
000000
000000
000000
000000
000000
000000
ENDCHAR

STARTCHAR multiply
ENCODING 203
SWIDTH 720 0
DWIDTH 18 0
BBX 18 50 0 -10
BITMAP
000000
000000
000000
000000
000000
000000
000000
000000
000000
000000
000000
000000
000000
000000
000000
000000
381C00
381C00
181800
181800
066000
066000
066000
066000
018000
018000
018000
018000
066000
066000
066000
066000
1C3800
1C3800
381C00
381C00
000000
000000
000000
000000
000000
000000
000000
000000
000000
000000
000000
000000
000000
000000
ENDCHAR

STARTCHAR Lambda
ENCODING 204
SWIDTH 720 0
DWIDTH 18 0
BBX 18 50 0 -10
BITMAP
000000
000000
000000
000000
000000
000000
000000
000000
000000
000000
018000
018000
018000
018000
018000
018000
03C000
03C000
03C000
03C000
066000
066000
066000
066000
0C3000
0C3000
0C3000
0C3000
1C3800
1C3800
181800
181800
381C00
381C00
300C00
300C00
700E00
700E00
FC3F00
FC3F00
000000
000000
000000
000000
000000
000000
000000
000000
000000
000000
ENDCHAR

STARTCHAR arrowdblboth
ENCODING 205
SWIDTH 720 0
DWIDTH 18 0
BBX 18 50 0 -10
BITMAP
000000
000000
000000
000000
000000
000000
000000
000000
000000
000000
000000
000000
000000
000000
181800
181800
300C00
300C00
600600
600600
7FFE00
7FFE00
C00300
C00300
C00300
C00300
7FFE00
7FFE00
600600
600600
300C00
300C00
181800
181800
000000
000000
000000
000000
000000
000000
000000
000000
000000
000000
000000
000000
000000
000000
000000
000000
ENDCHAR

STARTCHAR arrowdblright
ENCODING 206
SWIDTH 720 0
DWIDTH 18 0
BBX 18 50 0 -10
BITMAP
000000
000000
000000
000000
000000
000000
000000
000000
000000
000000
000000
000000
000000
000000
00E000
00E000
003800
003800
000C00
000C00
7FFE00
7FFE00
000300
000300
000300
000300
7FFE00
7FFE00
000C00
000C00
003800
003800
00E000
00E000
000000
000000
000000
000000
000000
000000
000000
000000
000000
000000
000000
000000
000000
000000
000000
000000
ENDCHAR

STARTCHAR equivalence
ENCODING 207
SWIDTH 720 0
DWIDTH 18 0
BBX 18 50 0 -10
BITMAP
000000
000000
000000
000000
000000
000000
000000
000000
000000
000000
000000
000000
000000
000000
000000
000000
3FFC00
3FFC00
000000
000000
000000
000000
000000
000000
3FFC00
3FFC00
000000
000000
000000
000000
000000
000000
3FFC00
3FFC00
000000
000000
000000
000000
000000
000000
000000
000000
000000
000000
000000
000000
000000
000000
000000
000000
ENDCHAR

STARTCHAR Pi
ENCODING 208
SWIDTH 720 0
DWIDTH 18 0
BBX 18 50 0 -10
BITMAP
000000
000000
000000
000000
000000
000000
000000
000000
000000
000000
FFFF00
FFFF00
181800
181800
181800
181800
181800
181800
181800
181800
181800
181800
181800
181800
181800
181800
181800
181800
181800
181800
181800
181800
181800
181800
181800
181800
181800
181800
7E7E00
7E7E00
000000
000000
000000
000000
000000
000000
000000
000000
000000
000000
ENDCHAR

STARTCHAR Psi
ENCODING 209
SWIDTH 720 0
DWIDTH 18 0
BBX 18 50 0 -10
BITMAP
000000
000000
000000
000000
000000
000000
000000
000000
000000
000000
07E000
07E000
018000
018000
018000
018000
318C00
318C00
318C00
318C00
318C00
318C00
318C00
318C00
318C00
318C00
318C00
318C00
1DB800
1DB800
0FF000
0FF000
018000
018000
018000
018000
018000
018000
07E000
07E000
000000
000000
000000
000000
000000
000000
000000
000000
000000
000000
ENDCHAR

STARTCHAR Sigma
ENCODING 211
SWIDTH 720 0
DWIDTH 18 0
BBX 18 50 0 -10
BITMAP
000000
000000
000000
000000
000000
000000
000000
000000
000000
000000
7FFE00
7FFE00
300600
300600
180600
180600
0C0600
0C0600
060000
060000
030000
030000
018000
018000
00C000
00C000
018000
018000
030000
030000
060000
060000
0C0600
0C0600
180600
180600
300600
300600
7FFE00
7FFE00
000000
000000
000000
000000
000000
000000
000000
000000
000000
000000
ENDCHAR

STARTCHAR radical
ENCODING 214
SWIDTH 720 0
DWIDTH 18 0
BBX 18 50 0 -10
BITMAP
000000
000000
000000
000000
000000
000000
000300
000300
000300
000300
000600
000600
000600
000600
000C00
000C00
000C00
000C00
601800
601800
601800
601800
603000
603000
303000
303000
306000
306000
306000
306000
186000
186000
18C000
18C000
18C000
18C000
0D8000
0D8000
0D8000
0D8000
0F0000
0F0000
070000
070000
060000
060000
000000
000000
000000
000000
ENDCHAR

STARTCHAR Omega
ENCODING 215
SWIDTH 720 0
DWIDTH 18 0
BBX 18 50 0 -10
BITMAP
000000
000000
000000
000000
000000
000000
000000
000000
000000
000000
03E000
03E000
0E3800
0E3800
180C00
180C00
180C00
180C00
300600
300600
300600
300600
300600
300600
300600
300600
300600
300600
180C00
180C00
180C00
180C00
0C1800
0C1800
0C1800
0C1800
0C1800
0C1800
3C1E00
3C1E00
000000
000000
000000
000000
000000
000000
000000
000000
000000
000000
ENDCHAR

STARTCHAR Xi
ENCODING 216
SWIDTH 720 0
DWIDTH 18 0
BBX 18 50 0 -10
BITMAP
000000
000000
000000
000000
000000
000000
000000
000000
000000
000000
3FFC00
3FFC00
300C00
300C00
300C00
300C00
300C00
300C00
000000
000000
0C3000
0C3000
0C3000
0C3000
0FF000
0FF000
0C3000
0C3000
0C3000
0C3000
000000
000000
300C00
300C00
300C00
300C00
300C00
300C00
3FFC00
3FFC00
000000
000000
000000
000000
000000
000000
000000
000000
000000
000000
ENDCHAR

STARTCHAR Upsilon1
ENCODING 217
SWIDTH 720 0
DWIDTH 18 0
BBX 18 50 0 -10
BITMAP
000000
000000
000000
000000
000000
000000
000000
000000
000000
000000
E00700
E00700
700E00
700E00
381C00
381C00
1C3800
1C3800
0C3000
0C3000
0E6000
0E6000
07E000
07E000
03C000
03C000
018000
018000
018000
018000
018000
018000
018000
018000
018000
018000
018000
018000
0FF000
0FF000
000000
000000
000000
000000
000000
000000
000000
000000
000000
000000
ENDCHAR

STARTCHAR propersubset
ENCODING 218
SWIDTH 720 0
DWIDTH 18 0
BBX 18 50 0 -10
BITMAP
000000
000000
000000
000000
000000
000000
000000
000000
000000
000000
000000
000000
03FC00
03FC00
07FC00
07FC00
1C0000
1C0000
180000
180000
380000
380000
300000
300000
300000
300000
300000
300000
380000
380000
180000
180000
1C0000
1C0000
07FC00
07FC00
03FC00
03FC00
000000
000000
000000
000000
000000
000000
000000
000000
000000
000000
000000
000000
ENDCHAR

STARTCHAR propersuperset
ENCODING 219
SWIDTH 720 0
DWIDTH 18 0
BBX 18 50 0 -10
BITMAP
000000
000000
000000
000000
000000
000000
000000
000000
000000
000000
000000
000000
3FC000
3FC000
3FE000
3FE000
003800
003800
001800
001800
001C00
001C00
000C00
000C00
000C00
000C00
000C00
000C00
001C00
001C00
001800
001800
003800
003800
3FE000
3FE000
3FC000
3FC000
000000
000000
000000
000000
000000
000000
000000
000000
000000
000000
000000
000000
ENDCHAR

STARTCHAR intersection
ENCODING 220
SWIDTH 720 0
DWIDTH 18 0
BBX 18 50 0 -10
BITMAP
000000
000000
000000
000000
000000
000000
000000
000000
000000
000000
000000
000000
03C000
03C000
0FF000
0FF000
1C3800
1C3800
181800
181800
300C00
300C00
300C00
300C00
300C00
300C00
300C00
300C00
300C00
300C00
300C00
300C00
300C00
300C00
300C00
300C00
300C00
300C00
300C00
300C00
000000
000000
000000
000000
000000
000000
000000
000000
000000
000000
ENDCHAR

STARTCHAR union
ENCODING 221
SWIDTH 720 0
DWIDTH 18 0
BBX 18 50 0 -10
BITMAP
000000
000000
000000
000000
000000
000000
000000
000000
000000
000000
000000
000000
300C00
300C00
300C00
300C00
300C00
300C00
300C00
300C00
300C00
300C00
300C00
300C00
300C00
300C00
300C00
300C00
300C00
300C00
300C00
300C00
181800
181800
1C3800
1C3800
0FF000
0FF000
03C000
03C000
000000
000000
000000
000000
000000
000000
000000
000000
000000
000000
ENDCHAR

STARTCHAR logicaland
ENCODING 222
SWIDTH 720 0
DWIDTH 18 0
BBX 18 50 0 -10
BITMAP
000000
000000
000000
000000
000000
000000
000000
000000
000000
000000
000000
000000
018000
018000
018000
018000
03C000
03C000
03C000
03C000
066000
066000
066000
066000
0C3000
0C3000
181800
181800
181800
181800
300C00
300C00
300C00
300C00
600600
600600
600600
600600
000000
000000
000000
000000
000000
000000
000000
000000
000000
000000
000000
000000
ENDCHAR

STARTCHAR logicalor
ENCODING 223
SWIDTH 720 0
DWIDTH 18 0
BBX 18 50 0 -10
BITMAP
000000
000000
000000
000000
000000
000000
000000
000000
000000
000000
000000
000000
600600
600600
600600
600600
300C00
300C00
300C00
300C00
181800
181800
181800
181800
0C3000
0C3000
066000
066000
066000
066000
03C000
03C000
03C000
03C000
018000
018000
018000
018000
000000
000000
000000
000000
000000
000000
000000
000000
000000
000000
000000
000000
ENDCHAR

STARTCHAR logicalnot
ENCODING 224
SWIDTH 720 0
DWIDTH 18 0
BBX 18 50 0 -10
BITMAP
000000
000000
000000
000000
000000
000000
000000
000000
000000
000000
000000
000000
000000
000000
000000
000000
000000
000000
000000
000000
3FFC00
3FFC00
000C00
000C00
000C00
000C00
000C00
000C00
000C00
000C00
000000
000000
000000
000000
000000
000000
000000
000000
000000
000000
000000
000000
000000
000000
000000
000000
000000
000000
000000
000000
ENDCHAR

STARTCHAR alpha
ENCODING 225
SWIDTH 720 0
DWIDTH 18 0
BBX 18 50 0 -10
BITMAP
000000
000000
000000
000000
000000
000000
000000
000000
000000
000000
000000
000000
000000
000000
000000
000000
07C600
07C600
1CEE00
1CEE00
387C00
387C00
307800
307800
603000
603000
603000
603000
603000
603000
603000
603000
607000
607000
707800
707800
39DE00
39DE00
1F8E00
1F8E00
000000
000000
000000
000000
000000
000000
000000
000000
000000
000000
ENDCHAR

STARTCHAR beta
ENCODING 226
SWIDTH 720 0
DWIDTH 18 0
BBX 18 50 0 -10
BITMAP
000000
000000
000000
000000
000000
000000
007800
007800
01FC00
01FC00
018C00
018C00
030600
030600
030600
030600
060600
060600
060C00
060C00
06F800
06F800
06FC00
06FC00
0C0E00
0C0E00
0C0600
0C0600
0C0600
0C0600
0C0600
0C0600
180600
180600
1B0C00
1B0C00
1B9C00
1B9C00
19F800
19F800
180000
180000
300000
300000
300000
300000
300000
300000
300000
300000
ENDCHAR

STARTCHAR chi
ENCODING 227
SWIDTH 720 0
DWIDTH 18 0
BBX 18 50 0 -10
BITMAP
000000
000000
000000
000000
000000
000000
000000
000000
000000
000000
000000
000000
000000
000000
000000
000000
1F0700
1F0700
070C00
070C00
031800
031800
039800
039800
01B000
01B000
01E000
01E000
01E000
01E000
00C000
00C000
01C000
01C000
03E000
03E000
036000
036000
063000
063000
0C3000
0C3000
0C3800
0C3800
181800
181800
7C1E00
7C1E00
000000
000000
ENDCHAR

STARTCHAR delta
ENCODING 228
SWIDTH 720 0
DWIDTH 18 0
BBX 18 50 0 -10
BITMAP
000000
000000
000000
000000
000000
000000
00FC00
00FC00
01FC00
01FC00
030000
030000
030000
030000
038000
038000
01C000
01C000
07F000
07F000
0E3800
0E3800
181800
181800
380C00
380C00
300C00
300C00
300C00
300C00
300C00
300C00
381800
381800
181800
181800
1E7000
1E7000
07E000
07E000
000000
000000
000000
000000
000000
000000
000000
000000
000000
000000
ENDCHAR

STARTCHAR epsilon
ENCODING 229
SWIDTH 720 0
DWIDTH 18 0
BBX 18 50 0 -10
BITMAP
000000
000000
000000
000000
000000
000000
000000
000000
000000
000000
000000
000000
000000
000000
000000
000000
01FE00
01FE00
070000
070000
0C0000
0C0000
1C0000
1C0000
180000
180000
3FFC00
3FFC00
380000
380000
380000
380000
180000
180000
1C0000
1C0000
0F0000
0F0000
03F800
03F800
000000
000000
000000
000000
000000
000000
000000
000000
000000
000000
ENDCHAR

STARTCHAR phi
ENCODING 230
SWIDTH 720 0
DWIDTH 18 0
BBX 18 50 0 -10
BITMAP
000000
000000
000000
000000
000000
000000
003000
003000
003000
003000
003000
003000
006000
006000
006000
006000
07F800
07F800
1CCC00
1CCC00
38C600
38C600
30C600
30C600
608600
608600
618600
618600
618600
618600
610C00
610C00
630C00
630C00
331800
331800
3B3800
3B3800
0FE000
0FE000
060000
060000
060000
060000
0C0000
0C0000
0C0000
0C0000
0C0000
0C0000
ENDCHAR

STARTCHAR gamma
ENCODING 231
SWIDTH 720 0
DWIDTH 18 0
BBX 18 50 0 -10
BITMAP
000000
000000
000000
000000
000000
000000
000000
000000
000000
000000
000000
000000
000000
000000
000000
000000
380C00
380C00
180C00
180C00
1C1800
1C1800
0C1800
0C1800
0E3000
0E3000
063000
063000
036000
036000
03E000
03E000
01C000
01C000
01C000
01C000
018000
018000
018000
018000
030000
030000
030000
030000
070000
070000
060000
060000
000000
000000
ENDCHAR

STARTCHAR eta
ENCODING 232
SWIDTH 720 0
DWIDTH 18 0
BBX 18 50 0 -10
BITMAP
000000
000000
000000
000000
000000
000000
000000
000000
000000
000000
000000
000000
000000
000000
000000
000000
3CF800
3CF800
079C00
079C00
060C00
060C00
060C00
060C00
0C0C00
0C0C00
0C1800
0C1800
0C1800
0C1800
181800
181800
183000
183000
183000
183000
303000
303000
306000
306000
006000
006000
006000
006000
00C000
00C000
00C000
00C000
000000
000000
ENDCHAR

STARTCHAR iota
ENCODING 233
SWIDTH 720 0
DWIDTH 18 0
BBX 18 50 0 -10
BITMAP
000000
000000
000000
000000
000000
000000
000000
000000
000000
000000
000000
000000
000000
000000
000000
000000
07C000
07C000
00C000
00C000
018000
018000
018000
018000
018000
018000
030000
030000
030000
030000
030000
030000
060000
060000
063800
063800
067000
067000
03C000
03C000
000000
000000
000000
000000
000000
000000
000000
000000
000000
000000
ENDCHAR

STARTCHAR theta
ENCODING 234
SWIDTH 720 0
DWIDTH 18 0
BBX 18 50 0 -10
BITMAP
000000
000000
000000
000000
000000
000000
01F000
01F000
03F800
03F800
071C00
071C00
0E0C00
0E0C00
0C0C00
0C0C00
1C0C00
1C0C00
180C00
180C00
180C00
180C00
3FF800
3FF800
381800
381800
301800
301800
303800
303800
303000
303000
307000
307000
38E000
38E000
1FC000
1FC000
0F8000
0F8000
000000
000000
000000
000000
000000
000000
000000
000000
000000
000000
ENDCHAR

STARTCHAR kappa
ENCODING 235
SWIDTH 720 0
DWIDTH 18 0
BBX 18 50 0 -10
BITMAP
000000
000000
000000
000000
000000
000000
000000
000000
000000
000000
000000
000000
000000
000000
000000
000000
060C00
060C00
061800
061800
063000
063000
066000
066000
0EC000
0EC000
0F8000
0F8000
0D8000
0D8000
1CC000
1CC000
18C000
18C000
186000
186000
187000
187000
183800
183800
000000
000000
000000
000000
000000
000000
000000
000000
000000
000000
ENDCHAR

STARTCHAR lambda
ENCODING 236
SWIDTH 720 0
DWIDTH 18 0
BBX 18 50 0 -10
BITMAP
000000
000000
000000
000000
000000
000000
070000
070000
030000
030000
030000
030000
018000
018000
018000
018000
018000
018000
018000
018000
03C000
03C000
03C000
03C000
06C000
06C000
066000
066000
0C6000
0C6000
0C6000
0C6000
183000
183000
183000
183000
303000
303000
783800
783800
000000
000000
000000
000000
000000
000000
000000
000000
000000
000000
ENDCHAR

STARTCHAR nu
ENCODING 238
SWIDTH 720 0
DWIDTH 18 0
BBX 18 50 0 -10
BITMAP
000000
000000
000000
000000
000000
000000
000000
000000
000000
000000
000000
000000
000000
000000
000000
000000
3E1C00
3E1C00
060C00
060C00
060C00
060C00
061800
061800
061800
061800
063000
063000
063000
063000
066000
066000
06C000
06C000
078000
078000
070000
070000
060000
060000
000000
000000
000000
000000
000000
000000
000000
000000
000000
000000
ENDCHAR

STARTCHAR partialdiff
ENCODING 239
SWIDTH 720 0
DWIDTH 18 0
BBX 18 50 0 -10
BITMAP
000000
000000
000000
000000
000000
000000
000000
000000
0F0000
0F0000
03C000
03C000
00F000
00F000
003000
003000
001800
001800
001800
001800
03CC00
03CC00
0E7C00
0E7C00
181C00
181C00
380C00
380C00
300C00
300C00
301C00
301C00
301800
301800
183800
183800
1FF000
1FF000
07C000
07C000
000000
000000
000000
000000
000000
000000
000000
000000
000000
000000
ENDCHAR

STARTCHAR pi
ENCODING 240
SWIDTH 720 0
DWIDTH 18 0
BBX 18 50 0 -10
BITMAP
000000
000000
000000
000000
000000
000000
000000
000000
000000
000000
000000
000000
000000
000000
000000
000000
3FFF00
3FFF00
061800
061800
061800
061800
061800
061800
0C3000
0C3000
0C3000
0C3000
0C3000
0C3000
0C3000
0C3000
186000
186000
186000
186000
186000
186000
187800
187800
000000
000000
000000
000000
000000
000000
000000
000000
000000
000000
ENDCHAR

STARTCHAR psi
ENCODING 241
SWIDTH 720 0
DWIDTH 18 0
BBX 18 50 0 -10
BITMAP
000000
000000
000000
000000
000000
000000
000000
000000
006000
006000
006000
006000
006000
006000
004000
004000
18C600
18C600
18C600
18C600
18C600
18C600
18C600
18C600
30C600
30C600
308C00
308C00
318C00
318C00
318C00
318C00
318800
318800
199800
199800
1DB000
1DB000
07E000
07E000
030000
030000
030000
030000
030000
030000
030000
030000
000000
000000
ENDCHAR

STARTCHAR rho
ENCODING 242
SWIDTH 720 0
DWIDTH 18 0
BBX 18 50 0 -10
BITMAP
000000
000000
000000
000000
000000
000000
000000
000000
000000
000000
000000
000000
000000
000000
000000
000000
01F000
01F000
07F800
07F800
061C00
061C00
0E0C00
0E0C00
0C0C00
0C0C00
0C0C00
0C0C00
1C1C00
1C1C00
181800
181800
181800
181800
3C7000
3C7000
3FE000
3FE000
33C000
33C000
300000
300000
700000
700000
600000
600000
600000
600000
000000
000000
ENDCHAR

STARTCHAR sigma
ENCODING 243
SWIDTH 720 0
DWIDTH 18 0
BBX 18 50 0 -10
BITMAP
000000
000000
000000
000000
000000
000000
000000
000000
000000
000000
000000
000000
000000
000000
000000
000000
03FF00
03FF00
0E3800
0E3800
1C1C00
1C1C00
180C00
180C00
300C00
300C00
300C00
300C00
300C00
300C00
301800
301800
381800
381800
183000
183000
1E6000
1E6000
078000
078000
000000
000000
000000
000000
000000
000000
000000
000000
000000
000000
ENDCHAR

STARTCHAR tau
ENCODING 244
SWIDTH 720 0
DWIDTH 18 0
BBX 18 50 0 -10
BITMAP
000000
000000
000000
000000
000000
000000
000000
000000
000000
000000
000000
000000
000000
000000
000000
000000
3FFE00
3FFE00
038000
038000
038000
038000
030000
030000
070000
070000
060000
060000
060000
060000
0E0000
0E0000
0C0000
0C0000
0C1C00
0C1C00
0E3800
0E3800
07E000
07E000
000000
000000
000000
000000
000000
000000
000000
000000
000000
000000
ENDCHAR

STARTCHAR florin
ENCODING 246
SWIDTH 720 0
DWIDTH 18 0
BBX 18 50 0 -10
BITMAP
000000
000000
000000
000000
000000
000000
000000
000000
001E00
001E00
003000
003000
006000
006000
006000
006000
00C000
00C000
0FF800
0FF800
00C000
00C000
018000
018000
018000
018000
018000
018000
018000
018000
030000
030000
030000
030000
030000
030000
030000
030000
060000
060000
060000
060000
060000
060000
0C0000
0C0000
780000
780000
000000
000000
ENDCHAR

STARTCHAR omega
ENCODING 247
SWIDTH 720 0
DWIDTH 18 0
BBX 18 50 0 -10
BITMAP
000000
000000
000000
000000
000000
000000
000000
000000
000000
000000
000000
000000
000000
000000
000000
000000
0C0C00
0C0C00
0C0600
0C0600
180600
180600
18C600
18C600
30C600
30C600
30C600
30C600
318600
318600
618600
618600
618C00
618C00
638C00
638C00
7ED800
7ED800
387000
387000
000000
000000
000000
000000
000000
000000
000000
000000
000000
000000
ENDCHAR

STARTCHAR xi
ENCODING 248
SWIDTH 720 0
DWIDTH 18 0
BBX 18 50 0 -10
BITMAP
000000
000000
000000
000000
000000
000000
07FC00
07FC00
07FC00
07FC00
00E000
00E000
038000
038000
060000
060000
060000
060000
030000
030000
00F000
00F000
03F000
03F000
0F0000
0F0000
1C0000
1C0000
380000
380000
300000
300000
300000
300000
380000
380000
1FD000
1FD000
03FC00
03FC00
000C00
000C00
000C00
000C00
001800
001800
007000
007000
000000
000000
ENDCHAR

STARTCHAR upsilon
ENCODING 249
SWIDTH 720 0
DWIDTH 18 0
BBX 18 50 0 -10
BITMAP
000000
000000
000000
000000
000000
000000
000000
000000
000000
000000
000000
000000
000000
000000
000000
000000
3E3C00
3E3C00
0E0C00
0E0C00
1C0C00
1C0C00
180C00
180C00
181C00
181C00
381800
381800
301800
301800
303800
303800
383000
383000
386000
386000
1CC000
1CC000
0F8000
0F8000
000000
000000
000000
000000
000000
000000
000000
000000
000000
000000
ENDCHAR

STARTCHAR zeta
ENCODING 250
SWIDTH 720 0
DWIDTH 18 0
BBX 18 50 0 -10
BITMAP
000000
000000
000000
000000
000000
000000
07FE00
07FE00
07FE00
07FE00
000C00
000C00
003800
003800
006000
006000
01C000
01C000
030000
030000
060000
060000
0C0000
0C0000
1C0000
1C0000
180000
180000
380000
380000
300000
300000
300000
300000
3C0000
3C0000
1F0000
1F0000
07FC00
07FC00
000E00
000E00
000600
000600
000600
000600
000C00
000C00
007000
007000
ENDCHAR

STARTCHAR arrowleft
ENCODING 251
SWIDTH 720 0
DWIDTH 18 0
BBX 18 50 0 -10
BITMAP
000000
000000
000000
000000
000000
000000
000000
000000
000000
000000
000000
000000
010000
010000
030000
030000
060000
060000
0E0000
0E0000
1C0000
1C0000
3FFF80
3FFF80
3FFF80
3FFF80
1C0000
1C0000
0E0000
0E0000
060000
060000
030000
030000
010000
010000
000000
000000
000000
000000
000000
000000
000000
000000
000000
000000
000000
000000
000000
000000
ENDCHAR

STARTCHAR arrowup
ENCODING 252
SWIDTH 720 0
DWIDTH 18 0
BBX 18 50 0 -10
BITMAP
000000
000000
000000
000000
000000
000000
000000
000000
018000
018000
03C000
03C000
07E000
07E000
0FF000
0FF000
1DB800
1DB800
199800
199800
018000
018000
018000
018000
018000
018000
018000
018000
018000
018000
018000
018000
018000
018000
018000
018000
018000
018000
018000
018000
018000
018000
018000
018000
000000
000000
000000
000000
000000
000000
ENDCHAR

STARTCHAR arrowright
ENCODING 253
SWIDTH 720 0
DWIDTH 18 0
BBX 18 50 0 -10
BITMAP
000000
000000
000000
000000
000000
000000
000000
000000
000000
000000
000000
000000
004000
004000
006000
006000
003000
003000
003800
003800
001C00
001C00
FFFE00
FFFE00
FFFE00
FFFE00
001C00
001C00
003800
003800
003000
003000
006000
006000
004000
004000
000000
000000
000000
000000
000000
000000
000000
000000
000000
000000
000000
000000
000000
000000
ENDCHAR

STARTCHAR arrowdown
ENCODING 254
SWIDTH 720 0
DWIDTH 18 0
BBX 18 50 0 -10
BITMAP
000000
000000
000000
000000
000000
000000
000000
000000
018000
018000
018000
018000
018000
018000
018000
018000
018000
018000
018000
018000
018000
018000
018000
018000
018000
018000
018000
018000
018000
018000
199800
199800
1DB800
1DB800
0FF000
0FF000
07E000
07E000
03C000
03C000
018000
018000
000000
000000
000000
000000
000000
000000
000000
000000
ENDCHAR
ENDFONT
